<?xml version='1.0' encoding='utf-8'?>
<svg xmlns="http://www.w3.org/2000/svg" version="1.1" width="600px" height="976px" viewBox="0 0 600 976"> <g id="layer1"> <g style="fill:rgb(0,0,0); fill-opacity:1.0; stroke-linejoin: miter"> <path d="M229.48495,-220.63402Q92.568085,-223.20187,-7.8151474,-140.72578Q-107.31967,-53.338383,-109.9991,69.856155Q-109.670135,192.95273,-12.151099,283.7927Q85.46987,369.64496,223.97775,372.26147Q358.63614,370.99973,455.42355,288.19296Q549.7026,202.72876,552.9965,82.0925Q552.95685,-37.01759,460.93713,-127.02171Q366.17017,-214.0314,231.16968,-220.5622"/> </g> <g style="fill:rgb(0,0,0); fill-opacity:1.0; stroke-linejoin: miter"> <path d="M-33.47625,-165.94089L-33.476303,108.81478L-32.48031,108.81489L476.4737,108.81372L476.47375,-165.94087L-33.476067,-165.94089"/> </g> <g style="fill:rgb(0,0,0); fill-opacity:1.0; stroke-linejoin: miter"> <path d="M4.1068754,190.89085L4.250018,349.29047L386.42242,349.34354L438.89056,349.28275L438.5606,190.951L4.582555,190.89093"/> </g> <g style="fill:rgb(0,0,0); fill-opacity:1.0; stroke-linejoin: miter"> <path d="M-14.993347,-218.47453L-14.993355,-82.27706L-14.069561,-82.27701L457.99066,-82.2772L457.99078,-218.47481L-14.993179,-218.47453"/> </g> <g style="fill:rgb(0,0,0); fill-opacity:1.0; stroke-linejoin: miter"> <path d="M-45.61439,324.1094L-46.149082,393.1541L487.21564,397.28918Q488.6046,397.3473,488.613,397.20532L489.1465,328.30347L-44.909153,324.11487"/> </g> <g style="fill:rgb(0,0,0); fill-opacity:1.0; stroke-linejoin: miter"> <path d="M37.520863,-273.01187L36.750137,-171.59598L404.68,-168.74681Q405.7311,-168.64539,405.46347,-168.92737L406.2473,-270.14362L37.641907,-273.01096"/> </g> <g> <g style="fill:rgb(0,0,0); fill-opacity:1.0; stroke-linejoin: miter"> <path d="M722.7083,-1363.5382C723.26056,-1363.5361,722.9085,-1362.9666,721.7891,-1362.0399C721.27374,-1361.6133,720.9792,-1361.3966,720.8986,-1361.3966C720.80316,-1361.3966,721.00836,-1361.7009,721.50287,-1362.3213C721.99347,-1362.9641,722.5557,-1363.5369,722.6976,-1363.5382C722.69904,-1363.5382,722.7006,-1363.5382,722.7022,-1363.5382 Z M719.7818,-1360.4427C719.9039,-1360.4427,720.019,-1360.404,720.1025,-1360.322C720.24615,-1360.1106,720.03864,-1359.5413,719.617,-1359.1115C719.3415,-1358.8308,719.1092,-1358.684,718.95734,-1358.684C718.8383,-1358.684,718.76886,-1358.7744,718.76715,-1358.9617C718.76324,-1359.3872,718.9709,-1359.9568,719.2524,-1360.1722C719.3809,-1360.3467,719.5898,-1360.4427,719.7818,-1360.4427 Z M744.2332,-1464.4675C743.94293,-1464.4675,743.6436,-1464.4661,743.3355,-1464.4631C738.86664,-1464.4224,736.2447,-1464.1143,736.2493,-1463.6176C736.25836,-1462.6243,731.8057,-1460.8098,729.3232,-1460.7871C728.1882,-1460.7766,726.8443,-1460.3389,726.424,-1459.7676C725.93256,-1459.1953,724.80365,-1458.5463,723.8123,-1458.3245C722.82196,-1458.0319,721.62067,-1457.5242,721.1989,-1457.0947C720.7056,-1456.7354,718.94403,-1455.4424,717.1818,-1454.2198C708.1578,-1448.107,706.46686,-1446.8147,706.12067,-1445.8893C705.91254,-1445.3911,705.34894,-1444.96,704.78143,-1444.9548C704.2139,-1444.9496,703.79034,-1444.7327,703.793,-1444.4491C703.7962,-1444.0942,701.8265,-1442.3027,699.4329,-1440.2946C697.03876,-1438.357,692.7475,-1434.4159,689.8654,-1431.5516C686.98315,-1428.6877,684.38007,-1426.3225,684.0254,-1426.3192C683.6707,-1426.3159,683.39154,-1425.8171,683.3976,-1425.1785C683.40344,-1424.54,682.7709,-1423.8958,681.99255,-1423.6759C681.2142,-1423.456,680.5796,-1423.0247,680.58215,-1422.7407C680.5901,-1421.8896,674.47626,-1415.5906,673.6251,-1415.5828C673.1994,-1415.5789,672.8488,-1415.1498,672.85333,-1414.6532C672.8572,-1414.2275,671.8061,-1412.7991,670.6108,-1411.6533C669.3449,-1410.4358,666.81616,-1407.7168,664.9916,-1405.5718C663.2376,-1403.4272,660.57074,-1400.2815,659.0253,-1398.6357C657.55054,-1396.9905,654.3209,-1393.3429,651.7934,-1390.4819C649.26587,-1387.6213,646.73773,-1384.831,646.17596,-1384.1875C645.61444,-1383.544,644.2128,-1381.6865,643.0204,-1380.186C641.89996,-1378.615,639.9351,-1376.2556,638.6702,-1374.9673C637.405,-1373.6787,636.3535,-1372.3213,636.3568,-1371.9664C636.3607,-1371.5408,636.0795,-1371.2544,635.7249,-1371.2512C635.44116,-1371.2485,633.40564,-1368.8887,631.23254,-1366.0313C629.05975,-1363.1736,626.39484,-1359.8147,625.34143,-1358.6704C624.28784,-1357.5256,620.92065,-1353.3801,617.9065,-1349.4507C614.8214,-1345.5206,611.874,-1342.0173,611.38007,-1341.729C610.8152,-1341.44,610.3949,-1340.8688,610.3981,-1340.5139C610.4071,-1339.521,604.0279,-1331.2334,603.2476,-1331.2261C602.96375,-1331.2235,602.6847,-1330.7244,602.6899,-1330.157C602.6944,-1329.6604,602.27606,-1328.876,601.78204,-1328.5881C601.35913,-1328.3003,599.956,-1326.5847,598.83673,-1324.8717C597.64716,-1323.0874,595.8249,-1320.6587,594.7714,-1319.514C593.64764,-1318.2974,591.82623,-1315.7981,590.6371,-1313.9426C589.4489,-1312.0162,588.1858,-1310.515,587.83105,-1310.5115C587.54724,-1310.5088,587.2681,-1310.0095,587.2733,-1309.4423C587.2787,-1308.8745,586.6475,-1308.0886,585.87103,-1307.656C585.0947,-1307.2233,584.4633,-1306.437,584.4693,-1305.7986C584.4745,-1305.2312,583.9838,-1304.5884,583.41833,-1304.3704C582.85345,-1304.0813,582.3622,-1303.5092,582.3667,-1303.013C582.3753,-1302.0908,580.2734,-1299.2334,578.0229,-1297.0847C577.3193,-1296.4398,576.7606,-1295.5125,576.76447,-1295.0869C576.76904,-1294.5902,576.48975,-1294.0911,576.2074,-1293.9467C575.9242,-1293.873,574.5922,-1292.1582,573.2625,-1290.1597C571.9326,-1288.2322,570.3896,-1286.3025,569.9666,-1286.0149C569.4727,-1285.7268,569.05365,-1285.0134,569.05817,-1284.5168C569.0627,-1284.0203,568.43335,-1283.0212,567.65967,-1282.3047C566.8859,-1281.5881,566.2553,-1280.7311,566.25854,-1280.3766C566.26306,-1279.8799,565.7022,-1279.1653,562.4022,-1275.446C561.8406,-1274.8022,561.35126,-1274.0176,561.3552,-1273.592C561.3584,-1273.237,560.7285,-1272.3093,559.95483,-1271.5928C559.1811,-1270.8762,558.5516,-1269.8772,558.5563,-1269.3809C558.5608,-1268.8843,558.1418,-1268.171,557.64795,-1267.8828C557.2248,-1267.5953,555.82184,-1265.8796,554.70306,-1264.0957C553.5845,-1262.312,552.18134,-1260.5967,551.75836,-1260.3088C551.2645,-1260.0206,550.84607,-1259.2366,550.85126,-1258.669C550.85645,-1258.1016,550.36584,-1257.4587,549.80035,-1257.2407C549.2355,-1256.9517,548.744,-1256.3794,548.7487,-1255.8828C548.75323,-1255.3862,547.4953,-1253.3174,545.95306,-1251.317C544.4108,-1249.3167,543.1509,-1247.4606,543.15405,-1247.106C543.15735,-1246.7515,542.5269,-1245.8942,541.7531,-1245.1776C540.9793,-1244.461,540.35004,-1243.4619,540.3554,-1242.8947C540.3599,-1242.398,540.08,-1241.9698,539.79626,-1241.9673C539.158,-1241.9614,534.1205,-1234.3245,531.74963,-1229.8335C530.9819,-1228.4785,530.0036,-1226.8379,529.5125,-1226.2661C529.0922,-1225.6942,528.4634,-1224.6244,528.2564,-1223.9841C527.97925,-1223.272,527.488,-1222.7002,527.1333,-1222.697C526.77875,-1222.6938,526.2178,-1221.9791,525.9418,-1221.1255C525.6665,-1220.2006,524.47894,-1218.2035,523.21643,-1216.6312C521.95404,-1215.0586,520.6953,-1213.0608,520.4905,-1212.2078C520.21515,-1211.283,519.65424,-1210.5684,519.29956,-1210.5652C518.9449,-1210.5619,518.3136,-1209.7756,517.96826,-1208.7795C517.6226,-1207.783,516.99133,-1206.9971,516.63666,-1206.9938C516.28186,-1206.9902,515.72107,-1206.2756,515.4452,-1205.4219C515.1698,-1204.4971,514.4737,-1203.0718,513.84235,-1202.2859C513.21173,-1201.4288,512.3013,-1200.1433,511.88232,-1199.4304C511.393,-1198.6455,510.20337,-1196.8611,509.22394,-1195.362C508.2445,-1193.8632,507.4779,-1192.3665,507.48053,-1192.0828C507.48376,-1191.7281,506.9912,-1191.2981,506.42627,-1191.009C505.86072,-1190.791,505.37012,-1190.1482,505.37616,-1189.5098C505.38135,-1188.9421,504.8236,-1187.873,504.19153,-1187.1577C502.5056,-1185.3685,501.38684,-1183.5848,500.13544,-1180.8069C499.50885,-1179.5239,498.8092,-1178.4536,498.4547,-1178.4503C498.029,-1178.4465,497.53894,-1177.7324,497.26294,-1176.8787C496.71326,-1174.9581,494.1941,-1171.1753,492.9953,-1170.3838C492.50153,-1170.0955,492.08392,-1169.2405,492.09033,-1168.5314C492.0968,-1167.8219,491.4687,-1166.6812,490.69507,-1165.9646C489.92133,-1165.2478,489.29205,-1164.249,489.29657,-1163.7523C489.3011,-1163.2557,488.88214,-1162.5425,488.38818,-1162.2544C487.89423,-1161.9661,487.12372,-1160.895,486.6364,-1159.8972C486.149,-1158.8994,485.1715,-1157.188,484.4024,-1155.9751C483.63245,-1154.8328,482.51654,-1152.7651,481.96002,-1151.5544C481.40424,-1150.2721,480.63385,-1149.2009,480.35016,-1149.1985C480.06628,-1149.1958,479.43573,-1148.3385,478.94885,-1147.27C477.69818,-1144.421,476.51007,-1142.4945,475.1042,-1141.0627C474.47235,-1140.3478,473.9134,-1139.42,473.91797,-1138.9235C473.92255,-1138.4271,473.29456,-1137.2864,472.52277,-1136.357C471.75098,-1135.4276,471.123,-1134.287,471.1269,-1133.8612C471.1316,-1133.3646,470.6402,-1132.7926,470.07526,-1132.5038C469.50977,-1132.2858,469.0204,-1131.5009,469.02692,-1130.7914C469.03345,-1130.082,468.40625,-1128.8704,467.63245,-1128.1538C466.85876,-1127.4374,466.22864,-1126.5094,466.23315,-1126.013C466.23785,-1125.5164,465.6092,-1124.4464,464.8374,-1123.5172C464.0656,-1122.5878,463.43762,-1121.447,463.4422,-1120.9506C463.44684,-1120.454,463.0277,-1119.7407,462.53375,-1119.4523C462.03998,-1119.1641,461.2694,-1118.0929,460.78198,-1117.0952C460.29456,-1116.0975,459.1786,-1114.03,458.19983,-1112.4604C457.292,-1110.8915,456.1753,-1108.8945,455.82843,-1108.0402C455.41132,-1107.1141,454.77942,-1106.399,454.35382,-1106.3951C453.99915,-1106.392,453.6504,-1105.7501,453.65747,-1104.9698C453.66467,-1104.1896,453.03735,-1102.9779,452.26306,-1102.3322C451.48926,-1101.6157,450.86066,-1100.5459,450.86652,-1099.9075C450.8725,-1099.2689,450.245,-1098.0573,449.4732,-1097.1278C448.7013,-1096.1986,448.07214,-1095.1997,448.07544,-1094.8451C448.07794,-1094.5613,447.03107,-1092.7073,445.7002,-1090.8506C444.44092,-1088.9236,443.18433,-1086.7126,442.90778,-1085.9298C442.6319,-1085.076,442.00323,-1084.0063,441.4397,-1083.5754C440.8767,-1083.0737,440.388,-1082.218,440.39258,-1081.7214C440.39777,-1081.1539,439.3521,-1079.158,438.09216,-1077.302C436.83234,-1075.446,435.4345,-1073.1628,434.9472,-1072.1653C434.45972,-1071.1677,433.3437,-1069.1001,432.36505,-1067.5305C431.4572,-1065.9614,430.48035,-1064.1791,430.27283,-1063.6095C429.99432,-1063.0393,429.5069,-1062.0417,429.1574,-1061.4711C428.80798,-1060.9004,428.18195,-1059.5466,427.76617,-1058.4789C427.35107,-1057.34,426.72034,-1056.4827,426.43665,-1056.48C426.08197,-1056.4768,425.45398,-1055.3362,425.0409,-1053.9845C424.62762,-1052.6328,423.99963,-1051.4921,423.64496,-1051.4886C423.29028,-1051.4855,422.6623,-1050.3446,422.24915,-1048.9929C421.83594,-1047.6412,421.13696,-1046.5,420.7823,-1046.4967C420.4276,-1046.4933,420.14655,-1046.2069,420.14972,-1045.8522C420.15887,-1044.8591,418.97656,-1042.2944,417.02032,-1039.0133C416.11255,-1037.4442,414.99713,-1035.3058,414.51038,-1034.2372C414.0952,-1033.0984,413.4646,-1032.2412,413.1809,-1032.2385C412.82623,-1032.2354,412.40912,-1031.3092,412.1358,-1030.1718C411.9334,-1029.0349,411.23462,-1027.8934,410.66907,-1027.6753C410.10352,-1027.4574,409.68506,-1026.6732,409.6916,-1025.9637C409.6988,-1025.1835,409.07343,-1023.75903,408.3023,-1022.7589C407.53113,-1021.75854,406.90448,-1020.4757,406.90967,-1019.9082C406.91425,-1019.41174,406.28564,-1018.3418,405.51196,-1017.6255C404.73816,-1016.90894,404.11017,-1015.76794,404.11603,-1015.1295C404.12256,-1014.42017,403.70544,-1013.49426,403.14185,-1013.06335C402.57898,-1012.56165,401.88202,-1011.2074,401.67963,-1010.07056C401.4063,-1008.93286,400.91956,-1007.86426,400.5675,-1007.5773C400.21472,-1007.3612,399.44562,-1006.1482,398.88928,-1004.93713C398.3335,-1003.655,397.49725,-1002.0156,397.07892,-1001.23145C395.96082,-999.37683,395.75256,-998.8784,391.50385,-990.32654C389.5542,-986.3358,387.67035,-982.91345,387.38855,-982.698C387.03583,-982.48206,386.62073,-981.34314,386.34796,-980.13464C386.07532,-978.926,385.4474,-977.7855,384.8819,-977.56726C384.31635,-977.3491,383.89932,-976.4232,383.90768,-975.5011C383.91623,-974.57886,383.29025,-973.2252,382.51578,-972.5797C381.74197,-971.86316,381.11472,-970.65125,381.1226,-969.8002C381.1304,-968.949,380.7145,-967.881,380.15097,-967.4503C379.58804,-966.9485,378.89108,-965.59424,378.68875,-964.4574C378.41617,-963.2489,377.78818,-962.10803,377.22256,-961.89C376.6572,-961.6721,376.24002,-960.746,376.2485,-959.8237C376.257,-958.9016,375.6309,-957.548,374.8564,-956.90234C374.08273,-956.1859,373.45547,-954.974,373.46396,-954.0521C373.47177,-953.2008,372.98563,-952.0613,372.42343,-951.4888C371.9321,-950.91675,371.23453,-949.6332,371.03073,-948.63806C370.7568,-947.57153,370.12888,-946.4308,369.56595,-945.92896C369.00235,-945.4983,368.5853,-944.5719,368.59177,-943.8628C368.59775,-943.22424,367.9722,-941.7997,367.20108,-940.79944C366.43008,-939.7993,365.80466,-938.3749,365.8118,-937.5946C365.81833,-936.88513,365.19357,-935.38965,364.42245,-934.3893C363.65134,-933.38904,363.02335,-932.2484,363.02737,-931.82275C363.03122,-931.3971,362.40714,-929.8307,361.63992,-928.4048C360.87332,-926.90796,360.24918,-925.3417,360.2532,-924.916C360.25705,-924.4905,359.76767,-923.7057,359.2048,-923.20386C358.64188,-922.702,358.15384,-921.77527,358.1603,-921.06604C358.16617,-920.4275,357.54086,-919.00305,356.76974,-918.0029C355.99857,-917.0027,355.3732,-915.578,355.3804,-914.7977C355.38748,-914.01746,354.97238,-912.87854,354.40945,-912.37683C353.91818,-911.8048,353.2219,-910.37964,353.0201,-909.17175C352.7482,-907.89233,352.05118,-906.53796,351.4883,-906.03625C350.9247,-905.60547,350.5095,-904.4667,350.51736,-903.6155C350.52512,-902.76416,349.90115,-901.19775,349.13004,-900.1974C348.35886,-899.19714,347.73343,-897.7727,347.7407,-896.99243C347.74783,-896.21216,347.26175,-895.07263,346.7001,-894.4291C346.1379,-893.8563,345.4415,-892.431,345.23984,-891.22314C344.96725,-890.01465,344.34122,-888.66113,343.8486,-888.2311C343.285,-887.8002,342.86728,-886.9452,342.87314,-886.30664C342.87833,-885.73914,342.2568,-883.8889,341.49222,-882.1793C340.7277,-880.46985,339.4769,-877.6206,338.7123,-875.911C337.9476,-874.20154,337.32614,-872.3513,337.3314,-871.7838C337.33725,-871.1455,336.91953,-870.2903,336.35593,-869.8595C335.79306,-869.35767,335.16965,-867.72046,334.89957,-866.22815C334.62955,-864.73584,334.0062,-863.09863,333.4432,-862.5968C332.87973,-862.1659,332.46323,-861.1688,332.46982,-860.4595C332.4769,-859.6792,331.85477,-857.9,331.08755,-856.47424C330.321,-854.97754,329.697,-853.411,329.7015,-852.9144C329.70602,-852.4177,329.08267,-850.7805,328.3154,-849.35474C327.5488,-847.8579,326.92612,-846.14966,326.93143,-845.5824C326.9366,-845.0149,326.45053,-843.8751,325.8895,-843.1605C325.32925,-842.3751,324.84433,-841.0939,324.8516,-840.3136C324.8594,-839.46216,324.23526,-837.8959,323.4661,-836.68286C322.69632,-835.5405,322.07492,-833.69055,322.08395,-832.6974C322.09378,-831.6333,321.60837,-830.423,321.04538,-829.92126C320.48245,-829.41956,319.85782,-827.92395,319.58774,-826.43164C319.38803,-825.0111,318.7665,-823.1609,318.20688,-822.30457C317.6472,-821.4481,317.23337,-820.16736,317.23984,-819.458C317.24643,-818.7488,316.62436,-816.9695,315.85776,-815.4728C315.09055,-814.0469,314.4684,-812.2677,314.47488,-811.55835C314.48074,-810.9199,313.8588,-809.14075,313.09207,-807.6438C312.32486,-806.218,311.70413,-804.2969,311.71255,-803.37476C311.72043,-802.5237,311.30777,-801.1011,310.74753,-800.31555C310.18716,-799.5299,309.56583,-797.6798,309.29514,-796.2584C309.02438,-794.8373,308.39963,-793.3417,307.83676,-792.83997C307.27322,-792.40906,306.85867,-791.1992,306.86844,-790.1354C306.8776,-789.1422,306.25815,-787.0792,305.4916,-785.5824C304.72433,-784.1566,304.1028,-782.3064,304.11002,-781.5261C304.1179,-780.6748,303.70596,-779.1814,303.14822,-778.11206C302.59055,-777.04297,301.9014,-774.83765,301.63138,-773.34534C301.36197,-771.7821,300.74118,-769.86096,300.32278,-769.0768C299.83334,-768.292,299.21396,-766.2292,299.01688,-764.5247C298.74875,-762.81976,298.12918,-760.7568,297.56888,-759.9711C297.0093,-759.1147,296.52768,-757.4788,296.5388,-756.2729C296.54916,-755.138,296.07022,-753.2182,295.51328,-752.07806C294.95627,-750.9379,294.26706,-748.73224,294.06924,-747.0988C293.7999,-745.5357,293.2507,-743.5444,292.76138,-742.75946C292.34286,-741.9754,291.7247,-739.7707,291.52884,-737.92426C291.2628,-736.0063,290.57358,-733.80084,290.01395,-732.94464C289.4543,-732.0881,288.97415,-730.31024,288.9872,-728.89154C288.99954,-727.54376,288.52194,-725.48236,287.89462,-724.2702C287.33755,-723.1302,286.65164,-720.5701,286.45718,-718.582C286.26193,-716.66486,285.71536,-714.3896,285.22598,-713.6048C284.80753,-712.8205,284.19064,-710.4738,283.92648,-708.3432C283.66238,-706.21246,283.04733,-703.65314,282.55997,-702.65546C282.0726,-701.6579,281.45828,-699.0273,281.26505,-696.8974C281.0718,-694.7674,280.45816,-692.0661,279.83084,-690.8543C279.20297,-689.71344,278.72787,-687.3681,278.74356,-685.6657C278.7592,-683.9633,278.35385,-681.7603,277.79617,-680.6911C277.30942,-679.6225,276.6268,-676.7077,276.3665,-674.15155C276.10623,-671.5953,275.49533,-668.6103,275.0098,-667.3996C274.5237,-666.2601,273.9127,-663.2751,273.7227,-660.79034C273.53214,-658.3768,272.92038,-655.4627,272.36276,-654.39325C271.87595,-653.3245,271.26956,-649.8431,271.15707,-646.64984C270.97354,-643.45575,270.57602,-640.40155,270.155,-639.9012C269.73386,-639.4007,269.19638,-636.1324,268.94534,-632.58295C268.6935,-629.1047,268.09225,-625.0556,267.6082,-623.70355C267.05307,-622.3504,266.52658,-617.8764,266.28018,-613.8305C266.10507,-609.7143,265.43625,-605.3099,264.8812,-603.957C264.2565,-602.4615,263.93442,-598.9117,263.9025,-594.65497C263.93716,-590.89545,263.62686,-586.06854,263.29178,-583.9373C262.95663,-581.80585,262.29227,-576.90485,261.8303,-573.1408C261.24582,-567.9733,260.75266,-565.623,260.181,-565.623C259.9827,-565.623,259.775,-565.9056,259.55075,-566.4516C258.316,-569.63104,236.21182,-591.4738,234.28116,-591.4738L234.27689,-591.4738C233.99179,-591.4738,233.27927,-592.0339,232.70651,-592.7364C232.06229,-593.3687,230.63248,-594.5618,229.56131,-595.3321C228.41922,-596.1021,225.99045,-597.92413,224.0615,-599.39606C222.20578,-600.7967,220.49356,-601.98627,220.27847,-601.98627L220.27646,-601.98627C219.70285,-601.98627,215.42563,-604.99286,214.56601,-605.97723C214.20682,-606.4705,212.78226,-607.0959,211.57431,-607.29755C210.99838,-607.4028,210.54697,-607.4611,210.18796,-607.4611C209.3953,-607.4611,209.05295,-607.17755,208.81516,-606.492C208.53787,-605.77997,208.6896,-604.7172,209.19199,-604.0833C209.62344,-603.44904,210.48843,-601.9672,211.0676,-600.6955C211.64609,-599.4948,212.36594,-598.3664,212.65103,-598.2271C213.5054,-597.8803,216.16647,-593.9322,216.75034,-592.16376C217.04105,-591.3177,217.54208,-590.6147,217.96695,-590.6147L217.97208,-590.6147C218.32755,-590.6147,219.11612,-589.559,219.69382,-588.3603C220.27304,-587.0887,221.42624,-585.113,222.21762,-583.91425C224.23172,-580.88226,226.32346,-577.14166,227.33743,-574.88104C227.77219,-573.8226,228.41702,-572.97833,228.70139,-572.97833L228.70517,-572.97833C229.05972,-572.97833,229.56119,-572.2747,229.85202,-571.42804C230.14432,-570.5085,230.93826,-569.0262,231.65604,-568.11066C232.4448,-567.1954,233.02475,-565.85297,233.03122,-565.1435C233.03836,-564.36505,233.32596,-563.80133,233.60904,-563.80133L233.61258,-563.80133C233.96786,-563.80133,234.75797,-562.60345,235.40921,-561.1219C236.06064,-559.7088,236.85654,-558.01385,237.21652,-557.44977C237.57639,-556.88556,238.58835,-554.83746,239.52872,-552.8597C240.4686,-550.95294,241.48117,-548.8343,241.77011,-548.26935C242.13004,-547.70514,242.78012,-546.434,243.14395,-545.44415C243.57877,-544.4549,244.37405,-542.831,244.95126,-541.77203C245.5278,-540.784,246.0375,-539.36993,246.04465,-538.58966C246.05124,-537.8803,246.70322,-536.39667,247.4946,-535.19794C248.28531,-534.0701,248.93814,-532.51544,248.94461,-531.8061C248.9512,-531.09674,249.3884,-529.8238,249.96378,-528.9777C250.5391,-528.1318,251.19443,-526.29364,251.49051,-524.9483C251.78665,-523.6032,252.5123,-521.83636,253.01602,-521.0607C253.59067,-520.28546,254.03061,-518.7292,254.04172,-517.52313C254.05222,-516.3881,254.56631,-514.47736,255.21585,-513.2774C255.79373,-512.14777,256.52652,-509.60065,256.68668,-507.61578C256.91708,-505.70233,257.58096,-502.94196,258.16086,-501.59943C259.5386,-498.3487,260.72122,-485.44867,259.66446,-484.6585C258.7446,-483.9709,251.11368,-482.6844,248.58578,-482.6844C248.20908,-482.6844,247.94571,-482.71307,247.83475,-482.77643C247.47745,-483.05682,243.50119,-483.44598,239.02908,-483.7597C234.27322,-484.0705,230.08157,-484.74115,228.86984,-485.36847C227.67587,-485.91718,225.58627,-486.3885,224.10013,-486.3885C224.07883,-486.3885,224.05765,-486.3885,224.03659,-486.38812C222.5463,-486.44537,220.05838,-486.99005,218.49069,-487.75616C216.92288,-488.5219,214.64786,-489.06854,213.44125,-489.12848C213.42923,-489.12836,213.41714,-489.1281,213.405,-489.1281C212.27176,-489.1281,210.66196,-489.60553,209.88474,-490.15985C209.17972,-490.71344,207.37021,-491.18756,205.95926,-491.18756C205.94034,-491.18756,205.92142,-491.18756,205.90268,-491.18732C203.77475,-491.16766,203.20981,-490.87897,203.28922,-489.95734C203.30624,-488.11285,222.66232,-473.81915,226.78824,-472.58026C227.57047,-472.37457,228.21347,-471.88397,228.21683,-471.52924C228.22006,-471.17474,229.36075,-470.54657,230.71255,-470.13336C232.06418,-469.72028,233.20499,-469.09222,233.20822,-468.7376C233.2109,-468.4538,234.27945,-467.9671,235.62912,-467.76654C236.97946,-467.49506,238.40408,-466.86993,238.8342,-466.37738C239.26431,-465.88458,240.83084,-465.26056,242.32309,-464.99066C243.8146,-464.79144,245.73825,-463.8869,246.66891,-462.9732L248.24515,-461.28534L245.97983,-460.76776C244.77585,-460.54388,242.43704,-460.3095,240.80563,-460.2945C239.1741,-460.2796,237.19254,-459.76483,236.34647,-459.1894C235.57144,-458.61493,233.59116,-457.9582,231.96225,-457.65936C230.40433,-457.36127,228.70773,-456.70758,228.28671,-456.20685C227.86636,-455.6353,226.87723,-455.20074,226.09695,-455.19354C225.38754,-455.18707,223.54916,-454.53156,222.1376,-453.73834C220.7255,-453.0158,219.03079,-452.1491,218.46536,-451.9312C217.89981,-451.71295,216.13559,-450.70367,214.58353,-449.76715C213.03201,-448.7597,211.0557,-447.67743,210.20773,-447.31488C209.36057,-446.88153,207.03268,-445.44122,205.13052,-444.0052C203.15677,-442.63898,201.39389,-441.48773,201.18112,-441.48578C200.96823,-441.4837,199.2756,-440.4041,197.44302,-439.1103C195.6105,-437.8166,193.56516,-436.52094,192.92941,-436.23138C192.22195,-436.0119,191.65971,-435.43915,191.66307,-435.08453C191.6663,-434.73004,191.03307,-434.15656,190.25468,-433.93658C189.33519,-433.64435,188.84587,-432.85956,188.85637,-431.7249C188.86711,-430.5512,188.90184,-430.15448,190.09435,-430.15448C190.70409,-430.15448,191.61638,-430.25824,192.98282,-430.41486C195.17917,-430.7188,197.51419,-431.37836,198.07712,-431.8802C198.63998,-432.38202,200.40683,-433.10773,201.96475,-433.40607C203.52267,-433.70392,205.43198,-434.35992,206.20773,-434.8637C206.98276,-435.4383,208.6813,-435.87958,210.1,-435.89264C211.44711,-435.97577,213.85373,-436.5655,215.40701,-437.36017C216.96042,-438.15485,219.4379,-438.74506,220.92679,-438.82965C222.41641,-438.84344,224.75266,-439.3614,226.16617,-439.9422C228.1445,-440.81158,244.58432,-442.8073,249.76248,-442.8548C253.38077,-442.81708,263.10916,-441.7713,264.17838,-441.2138C265.7462,-440.44794,265.76248,-438.6745,264.0132,-436.0335C263.24338,-434.8913,262.62192,-433.04144,262.63107,-432.04828C262.64084,-430.9842,262.2263,-429.7746,261.66275,-429.3437C261.0992,-428.91278,260.47714,-427.13373,260.2806,-425.35834C260.01254,-423.65314,259.3195,-421.87347,258.8268,-421.4433C258.26395,-420.94147,257.77914,-419.65997,257.78958,-418.5251C257.80008,-417.3902,257.18118,-415.25616,256.41397,-413.83038C255.64737,-412.33368,255.02591,-410.48346,255.03305,-409.7033C255.04025,-408.92303,254.62643,-407.64203,254.06607,-406.85675C253.57669,-406.07172,252.88571,-404.07928,252.61697,-402.44513C252.41916,-400.8117,251.72543,-399.10272,251.16257,-398.6009C250.59897,-398.1701,250.18643,-396.7475,250.19754,-395.54156C250.20865,-394.33563,249.5878,-392.4146,248.81857,-391.20148C248.04874,-390.05927,247.42862,-388.06744,247.43973,-386.8615C247.45084,-385.65546,247.03824,-384.2331,246.47464,-383.8021C245.9111,-383.37143,245.28897,-381.59225,245.09183,-379.8878C244.82376,-378.1827,244.20364,-376.19077,243.64273,-375.47617C243.08237,-374.69064,242.59824,-373.33847,242.60739,-372.34543C242.61649,-371.35226,241.99637,-369.36032,241.22977,-367.86325C240.4625,-366.4376,239.84177,-364.51657,239.85025,-363.59433C239.85812,-362.743,239.44553,-361.32065,238.88522,-360.53513C238.32486,-359.7496,237.70413,-357.82858,237.43472,-356.26547C237.16458,-354.77304,236.54391,-352.85226,236.05453,-352.06735C235.63608,-351.2833,235.01529,-349.36203,234.74527,-347.86972C234.47586,-346.30637,233.78415,-344.38474,233.22379,-343.5992C232.66348,-342.8138,232.251,-341.3912,232.25876,-340.5399C232.2673,-339.61777,231.6464,-337.69675,230.87924,-336.27084C230.11264,-334.77402,229.49252,-332.7822,229.50162,-331.7889C229.51077,-330.7961,229.09824,-329.37338,228.53787,-328.58786C228.04861,-327.80295,227.35739,-325.8104,227.15964,-324.17685C226.89029,-322.61362,226.19852,-320.6921,225.70926,-319.90707C225.14822,-319.19247,224.6641,-317.8403,224.67319,-316.84714C224.68234,-315.8541,224.06223,-313.86215,223.29562,-312.36533C222.52847,-310.93942,221.9089,-308.87643,221.91934,-307.7413C221.92917,-306.67746,221.51785,-305.11313,220.95761,-304.32736C220.39719,-303.54208,219.7056,-301.6202,219.43619,-300.05685C219.16605,-298.56467,218.54538,-296.64377,218.05594,-295.8591C217.4957,-295.07358,217.08304,-293.65085,217.0922,-292.6578C217.10135,-291.66464,216.48123,-289.6727,215.71469,-288.17563C214.94742,-286.74997,214.32791,-284.68723,214.33835,-283.55222C214.34811,-282.48813,213.93686,-280.92368,213.37662,-280.13815C212.81625,-279.3525,212.12448,-277.431,211.92606,-275.8685C211.65604,-274.3763,211.03653,-272.3132,210.54916,-271.31564C210.06174,-270.31796,209.3713,-268.25424,208.96011,-266.6899C208.3464,-263.98837,207.93192,-262.77878,206.06888,-257.0864C205.58469,-255.73398,204.89761,-253.31564,204.55722,-251.7518C204.14603,-250.18735,203.45688,-247.98203,202.97147,-246.77145C202.41434,-245.63132,201.79556,-243.4974,201.59518,-242.1478C201.32376,-240.79733,200.7023,-238.94724,200.14267,-238.09091C199.58304,-237.23422,199.17178,-235.66989,199.18094,-234.67673C199.1901,-233.6838,198.56992,-231.69162,197.8027,-230.26596C197.0361,-228.76926,196.41727,-226.6351,196.42838,-225.42929C196.43942,-224.22348,196.02878,-222.58823,195.46848,-221.8027C194.90823,-221.01718,194.2164,-219.09543,193.94705,-217.53244C193.74796,-216.0405,193.05826,-213.90598,192.57144,-212.83762C192.01376,-211.76816,191.60258,-210.20383,191.61101,-209.28183C191.61949,-208.35971,190.99864,-206.43845,190.23204,-204.94162C189.46483,-203.51572,188.84538,-201.45297,188.85582,-200.31784C188.86559,-199.25388,188.3834,-197.68893,187.82378,-196.83261C187.26341,-196.04697,186.64403,-193.98422,186.37596,-192.2789C186.10783,-190.57396,185.48833,-188.51122,184.99889,-187.72618C184.43864,-186.9409,184.02611,-185.51805,184.0352,-184.52489C184.04436,-183.53185,183.42607,-181.32701,182.66145,-179.61742C181.8969,-177.90807,181.27806,-175.77415,181.28651,-174.85191C181.295,-173.9298,180.67482,-171.93773,179.90761,-170.51195C179.14104,-169.01512,178.52284,-166.81017,178.53398,-165.60435C178.54509,-164.39867,178.13246,-162.97594,177.56895,-162.54503C177.07631,-162.11485,176.45546,-160.19371,176.18864,-158.34691C175.99348,-156.42967,175.30379,-154.29526,174.7434,-153.50974C174.18251,-152.79489,173.70024,-151.22995,173.71132,-150.02414C173.72179,-148.88913,173.1043,-146.61337,172.33836,-145.04575C171.57243,-143.47812,171.02586,-141.20273,170.96526,-140.06711C170.9764,-138.8613,170.49486,-137.22531,169.93517,-136.36887C169.37553,-135.5123,168.69038,-132.88144,168.42815,-130.53806L168.04237,-126.20712L170.80876,-126.23251C172.5821,-126.24887,174.06718,-126.75888,174.77,-127.47482C175.40181,-128.19016,176.66759,-129.40768,177.58257,-130.19638C179.90514,-132.20432,184.46242,-138.06284,184.45326,-139.05612C184.44942,-139.4819,185.07344,-141.04819,185.84071,-142.47409C186.6072,-143.97104,187.22609,-146.1047,187.21498,-147.31052C187.20387,-148.51657,187.61446,-150.15182,188.17476,-150.93747C188.73506,-151.72299,189.35591,-153.64389,189.62529,-155.20702C189.89531,-156.6992,190.51549,-158.69127,191.07518,-159.54784C191.63475,-160.40416,192.04538,-162.03954,192.03555,-163.10338C192.02585,-164.16759,192.64267,-166.51427,193.40726,-168.22374C194.17184,-169.93333,194.79141,-171.99657,194.78354,-172.84752C194.84738,-173.62852,195.39658,-175.61998,196.1625,-177.18773C196.92838,-178.75536,197.47702,-180.81786,197.53879,-181.81151C197.52963,-182.80467,197.94223,-184.22716,198.50247,-185.01268C198.99185,-185.79735,199.68222,-187.86119,199.94968,-189.63707C200.21713,-191.41295,200.9075,-193.47665,201.39694,-194.26132C201.95724,-195.04684,202.36856,-196.6113,202.35745,-197.81711C202.3464,-199.02328,202.82797,-200.65927,203.38754,-201.5156C203.94778,-202.30124,204.56729,-204.36398,204.83536,-206.0693C205.10349,-207.77414,205.72293,-209.837,206.21237,-210.62192C206.63083,-211.40598,207.25089,-213.39816,207.51968,-215.0322C207.71811,-216.5947,208.40976,-218.51657,208.8992,-219.30124C209.46011,-220.01596,209.94424,-221.36826,209.93515,-222.3613C209.926,-223.35434,210.54556,-225.41733,211.3115,-226.98495C212.07742,-228.55258,212.69559,-230.75766,212.6838,-232.03427C212.6727,-233.2402,213.0853,-234.66281,213.6489,-235.09384C214.21176,-235.59543,214.83255,-237.51645,215.09866,-239.4343C215.36484,-241.35214,215.98563,-243.27328,216.54855,-243.77487C217.11209,-244.2059,217.52463,-245.62863,217.51358,-246.83444C217.50241,-248.04025,218.1207,-250.24496,218.8873,-251.74179C219.65445,-253.1677,220.2753,-255.08884,220.26743,-255.94003C220.32993,-256.86276,220.87918,-258.85422,221.64511,-260.42184C222.41104,-261.9896,222.96017,-263.98093,223.02261,-264.90366C223.0148,-265.75497,223.42667,-267.24863,223.9863,-268.10495C224.54593,-268.9614,225.1661,-270.95334,225.43552,-272.51657C225.70493,-274.07968,226.18582,-275.7866,226.60684,-276.28708C227.02786,-276.7877,227.64938,-278.6378,227.9161,-280.4846C228.25375,-282.33212,228.87656,-284.04037,229.22928,-284.25656C229.65225,-284.54428,230.13571,-285.9675,230.3342,-287.52988C230.5333,-289.02158,231.15091,-291.29733,231.637,-292.43686C232.74918,-294.93015,234.54184,-300.55063,235.49911,-304.46115C235.84,-305.95395,236.60269,-307.87656,237.16232,-308.733C237.72269,-309.51852,238.2042,-311.1545,238.19308,-312.36032C238.18198,-313.566,238.59256,-315.20175,239.15292,-315.9874C239.71323,-316.77267,240.40488,-318.69418,240.67429,-320.25754C240.94443,-321.74973,241.5651,-323.67075,242.0546,-324.45578C242.61478,-325.2413,243.02878,-326.52182,243.02151,-327.30222C243.01437,-328.0825,243.63583,-329.9327,244.40237,-331.4294C245.16959,-332.8552,245.79044,-334.77646,245.78256,-335.62766C245.845,-336.5505,246.3942,-338.54172,247.16013,-340.10947C247.92612,-341.67722,248.47397,-343.8104,248.53586,-344.80417C248.52603,-345.868,248.94052,-347.07797,249.50406,-347.509C249.99673,-347.93906,250.61954,-349.6473,250.81802,-351.2098C251.01645,-352.7722,251.63785,-354.6224,252.26974,-355.33786C252.90158,-356.05283,253.38516,-357.47604,253.37595,-358.4692C253.36624,-359.53305,253.98563,-361.59592,254.75296,-363.02182C255.5195,-364.51877,256.139,-366.58163,256.12997,-367.57492C256.1201,-368.63876,256.60556,-369.8492,257.16843,-370.35104C257.73135,-370.85287,258.2181,-371.92123,258.20963,-372.84335C258.1913,-374.82944,259.5729,-378.88608,260.2822,-378.89243C260.56595,-378.8951,260.9785,-380.31747,261.17502,-382.09286C261.30057,-383.86752,261.991,-385.93134,262.6229,-386.64642C263.2548,-387.36176,263.73697,-388.9267,263.7258,-390.1325C263.7147,-391.33832,264.1274,-392.76105,264.69028,-393.26288C265.1816,-393.83502,265.8746,-395.61493,266.14334,-397.24884C266.41214,-398.88312,267.03354,-400.73297,267.59647,-401.2348C268.15866,-401.80768,268.57187,-403.15936,268.5615,-404.29413C268.55167,-405.35834,269.17184,-407.35028,269.9404,-408.63422C270.7089,-409.91827,271.32968,-411.83954,271.31918,-412.97443C271.3088,-414.1092,271.7936,-415.3907,272.3566,-415.89252C272.8491,-416.3227,273.54214,-418.10236,273.8102,-419.80743C274.00674,-421.5827,274.62888,-423.36212,275.19247,-423.7928C275.75607,-424.22357,276.1705,-425.4334,276.16068,-426.49762C276.15164,-427.49054,276.7711,-429.55328,277.53775,-431.05035C278.3049,-432.476,278.92636,-434.32623,278.91916,-435.10663C278.91202,-435.8869,279.53348,-437.737,280.30075,-439.1629C281.0673,-440.65973,281.6887,-442.50983,281.6815,-443.2901C281.67374,-444.14142,282.15848,-445.42267,282.71878,-446.2082C283.27975,-446.92267,283.76456,-448.20404,283.75742,-448.9843C283.7502,-449.7646,284.3716,-451.6148,285.13815,-453.1115C285.90543,-454.53766,286.52628,-456.45868,286.51846,-457.30975C286.50998,-458.232,287.13266,-459.94012,287.9025,-461.08246C288.67178,-462.29535,289.29453,-464.0036,289.28537,-464.99677C289.2762,-465.9897,289.6888,-467.4124,290.2491,-468.1978C290.7385,-468.98273,291.4315,-470.76263,291.70285,-472.1131C291.9742,-473.46332,292.59573,-475.31354,293.15524,-476.16986C293.71494,-477.0263,294.12686,-478.51996,294.11905,-479.37115C294.11057,-480.29327,294.7333,-482.00153,295.50308,-483.14374C296.27225,-484.35663,296.89572,-485.99396,296.8873,-486.91608C296.87943,-487.7674,297.50015,-489.68854,298.26743,-491.11432C299.03397,-492.61115,299.6555,-494.46124,299.64774,-495.31244C299.63986,-496.16364,300.12668,-497.23236,300.68948,-497.73407C301.25235,-498.2359,301.73776,-499.44623,301.72806,-500.5103C301.7189,-501.5031,302.33847,-503.56622,303.105,-505.06293C303.87228,-506.48907,304.49496,-508.19733,304.48978,-508.7647C304.48453,-509.3321,305.10727,-511.04047,305.87448,-512.4661C306.64108,-513.9632,307.26248,-515.8132,307.25534,-516.59357C307.24814,-517.3737,307.66214,-518.6545,308.22238,-519.4401C308.71176,-520.2248,309.40482,-522.0047,309.67612,-523.35516C309.94748,-524.7055,310.64047,-526.4854,311.12985,-527.2702C311.69016,-528.0556,312.10532,-529.19464,312.0988,-529.9036C312.09225,-530.6132,312.7144,-532.3923,313.48166,-533.8183C314.24826,-535.315,314.8696,-537.1652,314.86246,-537.9456C314.85526,-538.72577,315.26926,-540.00653,315.82944,-540.79205C316.31894,-541.5771,317.01193,-543.357,317.2833,-544.70734C317.5546,-546.05756,318.24765,-547.83734,318.73697,-548.622C319.29733,-549.40765,319.71243,-550.5466,319.7059,-551.2559C319.69937,-551.9653,320.3215,-553.74445,321.08878,-555.1702C321.85538,-556.66693,322.47678,-558.51715,322.4689,-559.36847C322.46103,-560.21967,322.87692,-561.28754,323.44052,-561.71844C324.0034,-562.22015,324.62747,-563.78656,324.89682,-565.3497C325.16684,-566.84186,325.78897,-568.62115,326.27835,-569.40607C326.83926,-570.12054,327.3248,-571.3311,327.31754,-572.11127C327.31046,-572.89166,327.93185,-574.7419,328.69846,-576.2386C329.46567,-577.6646,330.0884,-579.37286,330.08322,-579.94025C330.07797,-580.50775,330.7007,-582.216,331.46793,-583.64166C332.23447,-585.13837,332.856,-586.98895,332.84824,-587.84C332.84036,-588.6912,333.32712,-589.7597,333.89005,-590.26154C334.45297,-590.76337,334.93967,-591.8317,334.93185,-592.68317C334.92398,-593.5341,335.54544,-595.38434,336.31198,-596.8814C337.07925,-598.30707,337.7014,-600.08624,337.69553,-600.7248C337.68906,-601.43414,338.31308,-603.0004,339.08286,-604.14264C339.85208,-605.35565,340.4742,-607.1348,340.46506,-608.12787C340.4553,-609.1921,340.86978,-610.4018,341.43338,-610.83246C341.9963,-611.33453,342.61966,-612.97186,342.88974,-614.46405C343.15976,-615.95624,343.78323,-617.59357,344.34604,-618.09515C344.90958,-618.52594,345.32346,-619.80695,345.3137,-620.8708C345.30392,-621.935,345.92667,-623.64325,346.69785,-624.6435C347.46896,-625.6436,348.0931,-627.2099,348.0839,-628.20306C348.07486,-629.1961,348.48862,-630.47687,349.0516,-630.9787C349.54288,-631.5506,350.23782,-633.11774,350.50925,-634.46796C350.78055,-635.8184,351.40262,-637.5976,351.96225,-638.45416C352.522,-639.3106,352.93582,-640.5914,352.9293,-641.3007C352.92276,-642.00995,353.54684,-643.5765,354.31668,-644.71844C355.0859,-645.93146,355.71054,-647.4272,355.704,-648.1363C355.69815,-648.77484,356.32028,-650.55414,357.0875,-651.9799C357.8541,-653.47675,358.4755,-655.32697,358.46768,-656.1783C358.4598,-657.02936,358.8757,-658.0972,359.4393,-658.528C359.93192,-658.9582,360.55527,-660.5955,360.82407,-662.22943C361.0225,-663.7922,361.71878,-665.21747,362.28427,-665.4355C362.92014,-665.72504,363.3359,-666.7929,363.3248,-667.99884C363.31442,-669.13385,363.93655,-670.91315,364.70767,-671.9134C365.4788,-672.91364,366.1022,-674.55096,366.09305,-675.54376C366.08395,-676.53705,366.49716,-677.8886,366.9885,-678.4605C367.55008,-679.1043,368.31345,-680.9559,368.7944,-682.6629C369.20493,-684.2983,369.90182,-685.6525,370.2565,-685.6557C370.68216,-685.6595,370.95804,-686.51337,370.94766,-687.6484C370.93777,-688.7122,371.5593,-690.5627,372.32907,-691.7048C373.09818,-692.9178,373.72293,-694.41327,373.71652,-695.1225C373.71066,-695.7608,374.3328,-697.54047,375.09995,-698.9661C375.86655,-700.4628,376.4893,-702.1711,376.48337,-702.8095C376.4775,-703.44806,376.8945,-704.37384,377.45816,-704.8049C377.95084,-705.23517,378.57425,-706.8725,378.84433,-708.3647C379.04337,-709.85614,379.7377,-711.4943,380.3007,-711.9959C380.86356,-712.49786,381.34842,-713.77924,381.3386,-714.8432C381.3287,-715.9073,381.81363,-717.18866,382.3765,-717.6901C382.93942,-718.19196,383.42752,-719.1187,383.42166,-719.75714C383.4158,-720.39557,384.03784,-722.17487,384.73346,-723.67096C385.49994,-725.16766,386.33167,-727.3034,386.53467,-728.36957C386.73694,-729.5064,387.43457,-730.78986,387.9975,-731.2917C388.56104,-731.72235,388.97565,-732.9322,388.96588,-733.99603C388.95673,-734.9893,389.43958,-736.48334,390.0708,-737.2695C390.6311,-738.0551,391.39502,-739.83563,391.80695,-741.32916C392.1479,-742.82196,392.77527,-744.03375,393.12994,-744.0372C393.55554,-744.04095,393.83276,-744.753,393.82428,-745.6751C393.8164,-746.5263,394.43726,-748.44745,395.20386,-749.9443C395.971,-751.36993,396.59375,-753.0783,396.5879,-753.7166C396.58203,-754.35504,397.20868,-755.6379,397.97992,-756.6381C398.75104,-757.63837,399.375,-759.20465,399.36664,-760.1268C399.35876,-760.97797,399.77338,-762.1877,400.33557,-762.76056C400.89783,-763.3332,401.59283,-764.9002,401.7926,-766.32086C402.0633,-767.74225,402.68793,-769.23755,403.25092,-769.7395C403.81445,-770.1703,404.23022,-771.23816,404.22247,-772.0895C404.21527,-772.86975,404.83807,-774.5779,405.60785,-775.7201C406.37714,-776.933,407.00043,-778.57056,406.99323,-779.3508C406.98547,-780.2019,407.47223,-781.2706,408.03516,-781.77234C408.59802,-782.2742,409.2234,-783.6986,409.49475,-785.04895C409.69586,-786.32764,410.32117,-787.75244,410.88416,-788.254C411.4477,-788.6848,411.86475,-789.61096,411.85895,-790.24927C411.85303,-790.8878,412.47778,-792.3832,413.24762,-793.5254C414.01678,-794.7384,414.64014,-796.37573,414.63293,-797.1561C414.62512,-798.0072,415.11188,-799.0758,415.67487,-799.57764C416.23773,-800.07935,416.8631,-801.5039,417.1344,-802.8544C417.33545,-804.13306,417.96082,-805.5575,418.5238,-806.0593C419.0874,-806.4901,419.50385,-807.4873,419.49664,-808.2676C419.4901,-808.9769,420.1109,-810.89795,420.87683,-812.4658C421.64343,-813.9623,422.8968,-816.52783,423.66333,-818.02454C424.42926,-819.5923,425.0501,-821.5134,425.04358,-822.22266C425.03638,-823.0029,425.45282,-823.9999,426.01636,-824.431C426.57935,-824.9326,427.20465,-826.35706,427.40576,-827.636C427.677,-828.9862,428.30243,-830.41077,428.86536,-830.9126C429.42828,-831.4144,429.91565,-832.412,429.9085,-833.19226C429.90198,-833.9016,430.52338,-835.7517,431.21967,-837.177C433.37885,-841.5243,435.4626,-846.3672,435.45605,-847.07654C435.4521,-847.5022,435.9422,-848.2162,436.505,-848.7179C437.06787,-849.2197,437.55542,-850.2173,437.54828,-850.99756C437.5417,-851.7069,438.1631,-853.557,438.85938,-854.9824C440.67108,-858.546,442.82312,-863.67346,443.4433,-865.6655C443.64825,-866.5187,444.20923,-867.23315,444.56378,-867.2363C444.91846,-867.23975,445.1978,-867.73865,445.1919,-868.3772C445.18604,-869.0156,445.80548,-871.07874,446.64032,-872.85986C447.47534,-874.641,448.6557,-877.4186,449.35065,-878.9857C450.04572,-880.55273,451.22607,-883.3302,452.0611,-885.11145C452.89594,-886.89246,453.5174,-888.7428,453.51416,-889.0974C453.5102,-889.5231,454.0003,-890.23694,454.56317,-890.73865C455.12616,-891.2405,455.6128,-892.3091,455.6043,-893.2311C455.5965,-894.0824,456.2218,-895.50696,456.99353,-896.4363C457.7655,-897.3656,458.39087,-898.79016,458.38312,-899.64136C458.37457,-900.5635,458.8612,-901.6321,459.4242,-902.1339C459.98712,-902.6355,460.47632,-903.4203,460.47247,-903.84595C460.46796,-904.3425,461.09216,-905.90894,461.85803,-907.4768C462.62396,-909.04443,463.248,-910.6107,463.24347,-911.1074C463.23944,-911.5331,463.86676,-912.7446,464.63788,-913.745C465.409,-914.74524,466.0346,-916.1698,466.0274,-916.9501C466.02026,-917.7302,466.4367,-918.7273,466.92914,-919.1576C467.49274,-919.58826,468.25812,-921.22705,468.7403,-922.7921C469.1516,-924.35657,469.84888,-925.64,470.13275,-925.6426C470.48743,-925.6459,470.97418,-926.71436,471.17468,-928.0641C471.44604,-929.4144,472.0714,-930.839,472.6344,-931.3408C473.19733,-931.8424,473.68323,-932.98193,473.67554,-933.8331C473.66766,-934.6843,474.15375,-935.82385,474.71667,-936.3257C475.27966,-936.8275,476.1159,-938.4667,476.4568,-939.9597C476.8681,-941.5242,477.4953,-942.73584,477.77917,-942.7385C478.13385,-942.7418,478.61987,-943.88135,478.81952,-945.3019C479.09106,-946.65234,479.78784,-948.0066,480.35345,-948.2245C480.84814,-948.442,481.3366,-949.2977,481.32825,-950.21985C481.32037,-951.07104,481.94452,-952.63745,482.71564,-953.6376C483.48694,-954.6378,484.11212,-956.06274,484.10498,-956.8429C484.0979,-957.62317,484.51416,-958.6201,485.07782,-959.0509C485.64075,-959.55273,486.33765,-960.90686,486.5401,-962.0438C486.81268,-963.2522,487.44067,-964.3932,488.00616,-964.6112C488.57172,-964.8292,488.98944,-965.6843,488.98096,-966.60645C488.9732,-967.45764,489.5971,-969.02405,490.3684,-970.0243C491.13953,-971.02466,491.7649,-972.4491,491.7578,-973.2294C491.7506,-974.00977,492.1671,-975.0066,492.7306,-975.4375C493.29352,-975.9392,493.99103,-977.2228,494.19348,-978.3595C494.39587,-979.49646,495.0935,-980.7798,495.65637,-981.2815C496.21997,-981.71216,496.63757,-982.5675,496.6324,-983.1349C496.6247,-983.98596,498.0146,-987.12036,500.24744,-991.1846C500.5257,-991.75464,501.1526,-993.03723,501.49817,-994.03357C501.91455,-995.0305,502.5412,-996.31323,502.8907,-996.8839C503.31116,-997.4553,503.93762,-998.73804,504.28326,-999.7344C504.6997,-1000.7313,505.32623,-1002.01404,505.67578,-1002.58484C506.09613,-1003.1561,506.58374,-1004.1538,506.79126,-1004.7234C507.8988,-1007.713,510.8947,-1013.62854,511.3894,-1013.84595C511.6718,-1013.99036,511.94904,-1014.7024,511.9431,-1015.3408C511.93665,-1016.0502,512.562,-1017.4746,513.333,-1018.475C514.1043,-1019.4751,514.7323,-1020.61597,514.7277,-1021.1124C514.7218,-1021.75085,516.04297,-1024.6714,518.34454,-1028.9491C518.6231,-1029.5192,520.0164,-1032.2987,521.3393,-1035.0066C522.66174,-1037.7853,524.0556,-1040.494,524.4051,-1041.0648C524.7544,-1041.6355,525.8678,-1043.9867,526.9111,-1046.2664C527.95465,-1048.4752,529.07086,-1050.5426,529.42426,-1050.6879C529.70593,-1050.9033,530.1218,-1051.9713,530.3951,-1053.1086C530.5975,-1054.2456,531.2944,-1055.5999,531.85736,-1056.1017C532.421,-1056.5325,532.8388,-1057.3877,532.8336,-1057.9552C532.82825,-1058.5226,533.4549,-1059.8052,534.22614,-1060.8055C534.99713,-1061.8058,535.6238,-1063.0883,535.61926,-1063.585C535.6074,-1064.8617,540.47644,-1075.4058,541.6719,-1076.5518C542.1638,-1077.0527,542.5797,-1078.1208,542.5726,-1078.9011C542.56537,-1079.6814,543.05475,-1080.4663,543.62024,-1080.6842C544.1852,-1080.9731,544.675,-1081.687,544.66846,-1082.3964C544.6626,-1083.0348,545.2882,-1084.4592,546.0592,-1085.4596C546.8304,-1086.4598,547.4571,-1087.7426,547.4511,-1088.381C547.44525,-1089.0193,548.07385,-1090.0892,548.8483,-1090.7349C549.62195,-1091.4514,550.2512,-1092.4503,550.3165,-1093.0894C550.3113,-1093.6569,551.2138,-1095.7933,552.33105,-1097.7191C553.4478,-1099.7157,555.331,-1103.2091,556.5154,-1105.561C557.7707,-1107.9135,559.51465,-1111.1218,560.4224,-1112.6908C562.30835,-1115.9005,563.49,-1118.5361,563.4815,-1119.4581C563.479,-1119.7421,563.9718,-1120.1722,564.5367,-1120.4612C565.1022,-1120.6793,565.59064,-1121.535,565.5835,-1122.3153C565.5764,-1123.0956,566.2039,-1124.3073,566.97815,-1124.9528C567.75195,-1125.6693,568.3812,-1126.6683,568.3767,-1127.1649C568.37134,-1127.7324,569.4856,-1130.0126,570.8123,-1132.2949C572.1391,-1134.5771,573.25464,-1136.7156,573.2514,-1137.0702C573.2475,-1137.496,573.8779,-1138.353,574.65173,-1139.0695C575.42554,-1139.786,576.0535,-1140.9268,576.047,-1141.6361C576.04047,-1142.3456,576.3881,-1143.1293,576.8111,-1143.4166C577.23474,-1143.6337,578.00323,-1144.9176,578.5596,-1146.1285C579.602,-1148.4792,580.50995,-1150.0483,582.468,-1153.1165C583.16766,-1154.1875,583.7227,-1155.5405,583.7175,-1156.1078C583.71234,-1156.6752,584.1308,-1157.4595,584.62445,-1157.7478C585.61237,-1158.3243,586.8002,-1160.3214,588.81604,-1164.8091C589.37244,-1166.0203,590.2119,-1167.3052,590.63556,-1167.522C591.0586,-1167.8096,591.4066,-1168.5222,591.40076,-1169.1606C591.3949,-1169.7991,591.8809,-1170.9385,592.5839,-1171.6544C593.847,-1173.1555,595.0352,-1175.0817,596.56445,-1178.5012C597.1209,-1179.7124,597.96234,-1180.7842,598.31683,-1180.7874C598.7426,-1180.7913,599.092,-1181.3618,599.0848,-1182.1423C599.0783,-1182.8517,599.63324,-1184.2046,600.3342,-1185.133C601.0352,-1186.0618,601.803,-1187.4166,602.0802,-1188.1287C602.28723,-1188.7689,602.8494,-1189.342,603.2041,-1189.3453C603.5589,-1189.3485,604.0469,-1190.2754,604.3195,-1191.4836C604.5929,-1192.6211,605.1493,-1193.8323,605.57214,-1194.1198C606.0655,-1194.4792,606.83673,-1195.4792,607.32416,-1196.4769C607.81146,-1197.4744,608.7883,-1199.2568,609.55817,-1200.3993C610.3273,-1201.6123,611.4441,-1203.6089,611.9997,-1204.8909C612.5561,-1206.102,613.3266,-1207.1731,613.6104,-1207.1758C613.8941,-1207.1783,614.52466,-1208.0353,615.0107,-1209.1748C615.42664,-1210.243,616.4737,-1212.0972,617.2435,-1213.2393C618.01263,-1214.4524,619.12946,-1216.4489,619.68494,-1217.7308C620.24146,-1218.9421,621.01196,-1220.0132,621.2958,-1220.0156C621.57947,-1220.0183,622.20984,-1220.8756,622.69604,-1222.0151C623.8772,-1224.7217,625.20483,-1226.933,626.53876,-1228.4348C627.24176,-1229.1506,627.72974,-1230.0774,627.7258,-1230.5029C627.7225,-1230.8574,628.3511,-1231.9276,629.1229,-1232.8569C629.8947,-1233.7864,630.5227,-1234.927,630.5175,-1235.4948C630.513,-1235.991,630.7928,-1236.4192,631.2183,-1236.4231C631.573,-1236.4264,632.34344,-1237.4978,632.97015,-1238.7803C634.22156,-1241.5586,635.3403,-1243.3427,637.02625,-1245.1316C637.65826,-1245.8464,638.21606,-1246.916,638.2107,-1247.4833C638.20483,-1248.1216,638.6955,-1248.7645,639.26105,-1248.9824C639.826,-1249.2715,640.3185,-1249.7017,640.31525,-1250.0564C640.3086,-1250.7656,643.38544,-1255.6182,644.86066,-1257.1924C645.4223,-1257.8359,645.9123,-1258.5498,645.91034,-1258.7627C645.90765,-1259.0464,647.0257,-1260.9009,648.356,-1262.829C649.6861,-1264.7563,650.8042,-1266.6111,650.801,-1266.9656C650.79816,-1267.2495,651.42944,-1268.0354,652.20325,-1268.752C652.9776,-1269.3975,653.60675,-1270.3966,653.60156,-1270.9639C653.5964,-1271.5316,654.015,-1272.3157,654.50885,-1272.6042C655.56647,-1273.3234,658.5071,-1277.5356,658.49927,-1278.3868C658.4961,-1278.7417,659.1266,-1279.5986,659.9004,-1280.3152C660.674,-1281.0315,661.30334,-1282.0309,661.29877,-1282.5275C661.29425,-1283.0242,661.71313,-1283.737,662.2072,-1284.0254C662.7012,-1284.3138,664.17255,-1286.3135,665.5014,-1288.383C666.75995,-1290.3809,668.0919,-1292.0957,668.4466,-1292.0991C668.73047,-1292.1016,669.0115,-1292.3882,669.0083,-1292.7427C668.9997,-1293.6648,672.63885,-1299.0896,674.886,-1301.5935C675.86926,-1302.6665,676.7093,-1303.8802,676.70667,-1304.1638C676.7034,-1304.5186,678.38306,-1307.017,680.41534,-1309.731C682.3767,-1312.445,684.8288,-1315.8015,685.7385,-1317.1577C687.48914,-1319.657,688.19055,-1320.5146,690.7182,-1323.3757C691.4906,-1324.2339,692.1205,-1325.162,692.1186,-1325.3748C692.1146,-1325.8003,694.8478,-1329.4437,696.67377,-1331.4468C697.2354,-1332.0903,697.7242,-1332.946,697.7204,-1333.3716C697.71564,-1333.8682,698.2088,-1334.2273,698.7763,-1334.2324C699.3437,-1334.2375,699.8372,-1334.597,699.8333,-1335.0227C699.8261,-1335.8027,702.0672,-1338.9451,704.3852,-1341.4492C704.94684,-1342.0927,705.4371,-1342.8066,705.435,-1343.0194C705.43304,-1343.2322,706.5556,-1344.5907,707.8909,-1345.9507C709.2255,-1347.3818,710.3487,-1348.669,710.34686,-1348.8818C710.3404,-1349.5912,716.7236,-1357.4534,717.5723,-1357.7446C717.61847,-1357.7583,717.6585,-1357.7651,717.6927,-1357.7655L717.6989,-1357.7655C718.0218,-1357.7617,717.7912,-1357.159,717.1597,-1356.3223C716.52985,-1355.3943,715.6916,-1353.9675,715.3442,-1353.1843C714.99664,-1352.4006,713.7348,-1350.7576,712.61176,-1349.4698C711.48773,-1348.2538,709.45526,-1345.5396,708.1961,-1343.6127C706.93756,-1341.6145,705.67584,-1339.9712,705.3212,-1339.968C705.03754,-1339.9653,704.75824,-1339.4662,704.76337,-1338.8989C704.7692,-1338.2601,704.2786,-1337.6172,703.7131,-1337.3994C703.14813,-1337.1106,702.6569,-1336.5383,702.66144,-1336.0417C702.66534,-1335.6162,702.0361,-1334.6174,701.26227,-1333.9009C700.4886,-1333.1843,699.85944,-1332.185,699.86395,-1331.6887C699.8692,-1331.1211,699.23785,-1330.3351,698.46234,-1329.8313C697.6866,-1329.3276,697.05524,-1328.5416,697.05975,-1328.045C697.0643,-1327.5483,696.6446,-1326.9063,696.1508,-1326.6178C695.6568,-1326.3298,694.88696,-1325.1877,694.47107,-1324.1194C693.98505,-1322.9802,693.28357,-1322.122,692.858,-1322.1182C692.5033,-1322.1149,692.15247,-1321.686,692.157,-1321.1897C692.1622,-1320.6221,691.5331,-1319.6233,690.7593,-1318.9067C689.9854,-1318.1903,689.3554,-1317.2622,689.3601,-1316.7656C689.3646,-1316.269,688.7347,-1315.3413,687.9609,-1314.6248C687.1871,-1313.9082,686.558,-1312.9089,686.5632,-1312.3416C686.5677,-1311.845,686.07697,-1311.202,685.5114,-1310.984C684.94666,-1310.6951,684.4547,-1310.1942,684.4592,-1309.6975C684.4632,-1309.272,683.2051,-1307.2031,681.6635,-1305.1316C680.12195,-1303.0599,678.8614,-1301.2749,678.8634,-1301.062C678.86725,-1300.6365,675.3683,-1295.4258,674.8046,-1294.9951C674.52277,-1294.7798,673.89294,-1293.8513,673.4057,-1292.8538C671.176,-1288.4353,670.3367,-1287.1504,669.6981,-1287.1445C669.34357,-1287.1414,669.0631,-1286.7842,669.06775,-1286.2876C669.07544,-1285.4365,665.9999,-1280.4421,664.38416,-1278.7249C663.89215,-1278.2236,663.47437,-1277.3687,663.47906,-1276.8721C663.48364,-1276.3754,662.8543,-1275.3767,662.0805,-1274.6602C661.3067,-1273.9436,660.6776,-1272.9446,660.6821,-1272.448C660.68677,-1271.9513,660.26746,-1271.238,659.7735,-1270.95C659.2796,-1270.6616,658.50916,-1269.5906,658.0218,-1268.5928C656.9773,-1266.4551,656.06824,-1265.0278,653.3409,-1260.7462C652.2222,-1258.9624,650.8947,-1256.7512,650.4072,-1255.7538C649.4318,-1253.8293,648.8735,-1252.8312,645.4447,-1247.6919C644.1849,-1245.8357,642.85803,-1243.5535,642.4402,-1242.6985C642.09326,-1241.844,641.18616,-1240.2036,640.417,-1238.9905C639.64703,-1237.8484,638.5311,-1235.7813,637.8328,-1234.5686C637.20624,-1233.2861,636.4357,-1232.2151,636.15186,-1232.2124C635.8682,-1232.2098,635.3086,-1231.3533,634.8928,-1230.2849C634.4776,-1229.1461,633.5008,-1227.3638,632.7317,-1226.1509C631.96185,-1225.0088,630.84515,-1223.0122,630.3595,-1221.8018C629.80334,-1220.5908,628.82245,-1219.2339,628.26025,-1218.6608C627.6264,-1218.1583,627.13715,-1217.3738,627.1412,-1216.9481C627.145,-1216.5225,626.09973,-1214.4556,624.7703,-1212.4573C623.4416,-1210.3877,622.1862,-1208.0353,621.9097,-1207.252C621.70404,-1206.47,621.21344,-1205.8267,620.85876,-1205.8235C620.5041,-1205.8202,619.8761,-1204.6797,619.46295,-1203.328C619.04956,-1201.9763,618.4216,-1200.8356,618.1378,-1200.833C617.9251,-1200.831,617.2945,-1199.974,616.80786,-1198.9053C615.41846,-1195.7001,613.7434,-1192.7051,612.6883,-1191.7021C612.1964,-1191.2014,611.78076,-1190.1332,611.7879,-1189.353C611.79504,-1188.5726,611.3056,-1187.7881,610.74005,-1187.5701C610.1753,-1187.281,609.6827,-1186.8508,609.68536,-1186.567C609.6944,-1185.5742,608.4423,-1182.8667,606.5551,-1179.7991C605.5764,-1178.2294,604.4592,-1176.3036,604.0406,-1175.5195C603.6932,-1174.7358,602.57587,-1172.8105,601.6679,-1171.2412C600.76025,-1169.6721,599.5044,-1167.3905,598.94794,-1166.1792C598.4623,-1164.969,597.62305,-1163.6844,597.1994,-1163.4679C596.7764,-1163.1802,596.4288,-1162.3965,596.4353,-1161.6874C596.44183,-1160.978,595.814,-1159.8369,595.0402,-1159.1204C594.2664,-1158.4038,593.6384,-1157.263,593.64496,-1156.5535C593.6515,-1155.8445,593.304,-1155.0608,592.95123,-1154.8447C592.52826,-1154.5571,591.75916,-1153.3441,591.2027,-1152.133C590.64703,-1150.8511,589.8106,-1149.2117,589.3923,-1148.4274C587.6457,-1145.5027,587.2974,-1144.7902,586.3246,-1142.582C585.7682,-1141.3707,584.9991,-1140.1576,584.6464,-1139.9417C584.2944,-1139.6549,583.8081,-1138.5153,583.5357,-1137.3068C583.2629,-1136.0983,582.6349,-1134.9575,582.0693,-1134.7395C581.5038,-1134.5216,581.08484,-1133.808,581.0913,-1133.0988C581.09717,-1132.4603,580.4718,-1131.0358,579.7007,-1130.0356C578.9295,-1129.0354,578.3016,-1127.8947,578.3062,-1127.3981C578.3108,-1126.9015,577.6826,-1125.7606,576.91144,-1124.7604C576.1404,-1123.7601,575.51306,-1122.5485,575.5176,-1122.0519C575.5221,-1121.5554,575.033,-1120.7706,574.47003,-1120.2687C573.90704,-1119.767,573.41956,-1118.7692,573.426,-1118.06C573.432,-1117.4216,572.946,-1116.2821,572.38367,-1115.7094C571.75037,-1115.1361,570.91296,-1113.6385,570.5693,-1112.4293C570.1541,-1111.2904,569.52496,-1110.2916,569.2412,-1110.289C568.8866,-1110.2858,568.46924,-1109.3599,568.196,-1108.2222C567.9937,-1107.0852,567.36774,-1105.7316,566.80414,-1105.3009C566.2406,-1104.8701,565.614,-1103.5873,565.4114,-1102.4504C565.20905,-1101.3134,564.5097,-1100.2429,563.94415,-1100.0249C563.3786,-1099.807,562.9588,-1099.1647,562.964,-1098.5972C562.9739,-1097.5331,559.4944,-1090.1943,558.71924,-1089.6195C558.4374,-1089.4042,558.02094,-1088.4072,557.74713,-1087.3406C557.473,-1086.2739,556.8457,-1085.0623,556.2829,-1084.5604C555.7193,-1084.1296,555.3022,-1083.2034,555.3087,-1082.4943C555.3145,-1081.8557,554.688,-1080.5731,553.91614,-1079.6438C553.14435,-1078.7145,552.517,-1077.5028,552.52155,-1077.0063C552.52673,-1076.4388,551.9001,-1075.156,551.12897,-1074.1558C550.35785,-1073.1555,549.73236,-1071.7311,549.7397,-1070.9508C549.7462,-1070.2415,549.25665,-1069.4565,548.69116,-1069.2384C548.1263,-1068.9496,547.6362,-1068.2356,547.64294,-1067.5262C547.6488,-1066.8878,547.0234,-1065.4634,546.2524,-1064.4631C545.4812,-1063.4628,544.8524,-1062.3928,544.8556,-1062.0382C544.86017,-1061.5417,540.8934,-1053.2052,537.96576,-1047.5741C535.1772,-1042.2277,534.4145,-1040.3055,534.42554,-1039.0996C534.43274,-1038.3192,534.1564,-1037.5364,533.80426,-1037.2494C533.4515,-1037.0334,532.96466,-1035.9648,532.69147,-1034.8273C532.48914,-1033.6903,531.792,-1032.336,531.2291,-1031.8342C530.66565,-1031.4034,530.2484,-1030.4775,530.25494,-1029.7681C530.2608,-1029.1298,529.63434,-1027.847,528.8624,-1026.9176C528.0906,-1025.9884,527.4641,-1024.7057,527.4706,-1023.99634C527.47705,-1023.287,526.98956,-1022.2893,526.4272,-1021.7168C525.9361,-1021.14453,525.23846,-1019.8612,525.0347,-1018.8661C524.7609,-1017.79956,524.13275,-1016.6588,523.5698,-1016.1572C523.0065,-1015.7261,522.58856,-1014.8711,522.59375,-1014.3036C522.60156,-1013.4524,521.2117,-1010.31824,518.9788,-1006.254C518.7003,-1005.68396,518.0738,-1004.40137,517.72815,-1003.405C517.3117,-1002.40796,516.68524,-1001.12537,516.33575,-1000.55457C515.9153,-999.98315,515.4278,-998.9855,515.22034,-998.41614C514.66644,-996.92126,511.885,-990.7948,510.1443,-987.2318C508.40424,-983.5979,506.59912,-979.3248,506.60498,-978.6863C506.609,-978.26074,506.1189,-977.547,505.55585,-977.04517C504.9931,-976.54346,504.50488,-975.6167,504.5116,-974.90735C504.51746,-974.26904,503.89203,-972.8445,503.12097,-971.84424C502.34985,-970.8439,501.72437,-969.4193,501.73157,-968.63904C501.73883,-967.85876,501.32214,-966.8618,500.7586,-966.431C500.19586,-965.9291,499.49823,-964.6459,499.2959,-963.5089C499.09344,-962.3721,498.39587,-961.08875,497.833,-960.5869C497.26935,-960.15625,496.85352,-959.08826,496.86212,-958.166C496.86987,-957.3148,496.2445,-955.89026,495.47278,-954.96106C494.701,-954.03174,494.07556,-952.6072,494.08356,-951.756C494.09192,-950.834,493.67596,-949.76575,493.18335,-949.3357C492.6198,-948.9049,491.85455,-947.2661,491.37225,-945.70105C490.96106,-944.1366,490.2636,-942.8533,489.90887,-942.85C489.48328,-942.84607,489.2068,-942.06323,489.21582,-941.0702C489.22485,-940.077,488.59967,-938.65247,487.82648,-937.8651C487.05334,-937.0774,486.42798,-935.65295,486.43658,-934.7307C486.445,-933.80884,485.9588,-932.6693,485.3958,-932.16736C484.833,-931.6658,483.99677,-930.02625,483.65588,-928.53357C483.24457,-926.969,482.61725,-925.75745,482.33337,-925.75476C481.9787,-925.7516,481.49213,-924.68286,481.2917,-923.33325C481.02026,-921.98267,480.39496,-920.5582,479.83203,-920.0565C479.26898,-919.5547,478.78308,-918.41516,478.79095,-917.56396C478.79865,-916.7129,478.1748,-915.1466,477.40356,-914.146C476.63245,-913.14575,476.00696,-911.7213,476.01416,-910.94104C476.02136,-910.16077,475.53394,-909.1631,474.97113,-908.6615C474.40814,-908.15955,473.78345,-906.66394,473.51215,-905.3136C473.24072,-903.9635,472.61407,-902.68066,472.1194,-902.4634C471.55402,-902.24536,471.13556,-901.46106,471.14276,-900.6808C471.1493,-899.97144,470.5279,-898.12134,469.83148,-896.69617C467.25336,-891.63574,465.58862,-887.506,465.5998,-886.2999C465.6056,-885.6616,465.1156,-884.94775,464.55,-884.7296C463.9853,-884.44055,463.49646,-883.58496,463.50433,-882.73364C463.5114,-881.95337,462.88812,-880.31604,462.1189,-879.103C461.34906,-877.9608,460.72626,-876.25244,460.73334,-875.4723C460.7412,-874.6211,460.32538,-873.5531,459.76178,-873.1223C459.1989,-872.6206,458.5027,-871.19556,458.3011,-869.9874C458.02893,-868.7081,457.4043,-867.2125,456.91302,-866.6405C456.42157,-866.0686,455.79694,-864.5731,455.52496,-863.2937C455.32318,-862.0858,454.62695,-860.6605,454.0641,-860.1587C453.5005,-859.728,453.08466,-858.66016,453.09253,-857.80884C453.0996,-857.02856,452.47614,-855.39124,451.70697,-854.1781C450.9372,-853.036,450.3131,-851.4696,450.31897,-850.8312C450.32483,-850.19275,449.9084,-849.1958,449.34546,-848.6941C448.85406,-848.1222,448.1579,-846.6969,447.95618,-845.489C447.68408,-844.2096,446.9873,-842.85535,446.42432,-842.3535C445.86066,-841.9227,445.4449,-840.85474,445.45276,-840.0034C445.46063,-839.15234,445.04718,-837.80054,444.487,-837.01514C443.9267,-836.22974,443.16467,-834.23645,442.7541,-832.6011C442.27252,-830.96484,441.64655,-829.6112,441.29187,-829.6079C440.9372,-829.60474,440.4511,-828.46533,440.17975,-827.115C439.9793,-825.76526,439.35394,-824.3408,438.79108,-823.83887C438.2276,-823.4081,437.81104,-822.41113,437.81824,-821.63086C437.82477,-820.9214,437.2033,-819.0714,436.43738,-817.50366C435.67145,-815.9359,435.0487,-814.22754,435.05402,-813.66003C435.0592,-813.09265,434.6419,-812.1665,434.0797,-811.594C433.51746,-811.02124,432.75287,-809.31165,432.34222,-807.6763C431.86072,-806.04004,431.23608,-804.5447,430.88324,-804.3286C430.4596,-804.1118,430.1831,-803.32886,430.18896,-802.69055C430.1955,-801.9813,429.57275,-800.2731,428.8061,-798.776C428.03882,-797.3502,427.4148,-795.7838,427.41882,-795.3583C427.42267,-794.9326,426.79468,-793.7919,426.02356,-792.7915C425.25244,-791.79126,424.62848,-790.225,424.63617,-789.37366C424.64404,-788.52246,424.15796,-787.38293,423.5951,-786.88135C423.0321,-786.3795,422.54407,-785.45264,422.54993,-784.8142C422.55573,-784.1759,421.93365,-782.3967,421.16772,-780.829C420.4018,-779.26135,419.779,-777.553,419.7849,-776.9147C419.7901,-776.34717,419.16473,-774.9225,418.39563,-773.70935C417.62567,-772.5675,417.003,-770.859,417.0102,-770.07886C417.018,-769.22754,416.60223,-768.15967,416.03857,-767.7288C415.47577,-767.227,414.77936,-765.80194,414.5067,-764.59344C414.3051,-763.3857,413.6823,-761.6773,413.19287,-760.8924C412.70355,-760.1075,412.08008,-758.4704,411.80804,-757.19086C411.60638,-755.9831,410.9101,-754.5579,410.34717,-754.0561C409.78363,-753.6252,409.36987,-752.3444,409.37958,-751.28046C409.38934,-750.2165,408.97552,-748.9357,408.41193,-748.50494C407.849,-748.0031,407.15277,-746.57806,406.95105,-745.3703C406.67908,-744.09064,406.0556,-742.4533,405.56616,-741.6684C405.07684,-740.8837,404.4541,-739.17535,404.25232,-737.9676C403.97974,-736.7591,403.28345,-735.3338,402.72046,-734.832C402.15698,-734.4013,401.74243,-733.19147,401.75226,-732.1274C401.7613,-731.13434,401.13928,-729.35516,400.37006,-728.14215C399.60028,-726.9998,398.97748,-725.29156,398.98468,-724.51117C398.99255,-723.6602,398.5766,-722.59235,398.01312,-722.1613C397.45013,-721.6597,396.8255,-720.164,396.55548,-718.67206C396.2848,-717.2507,395.73297,-715.543,395.24158,-714.9709C394.67932,-714.3984,394.12616,-712.8327,393.9251,-711.5538C393.65314,-710.27423,392.9582,-708.7072,392.39587,-708.13446C391.83435,-707.49115,391.3501,-706.13873,391.35986,-705.0745C391.37042,-703.93964,390.9566,-702.6589,390.39294,-702.2281C389.83002,-701.72626,389.20538,-700.2309,388.9353,-698.73846C388.66467,-697.31744,388.1128,-695.6097,387.55054,-695.03705C387.05914,-694.4648,386.5067,-692.8282,386.23608,-691.4069C385.966,-689.9146,385.34125,-688.41925,384.77838,-687.9174C384.21558,-687.4157,383.7308,-686.13434,383.74057,-685.0701C383.7504,-684.0063,383.26553,-682.7249,382.70267,-682.2232C382.13968,-681.7214,381.51492,-680.226,381.2449,-678.7337C380.97433,-677.3123,380.42178,-675.6755,379.93045,-675.1036C379.43918,-674.53156,378.8867,-672.89484,378.61594,-671.4737C378.34586,-669.9815,377.7211,-668.4859,377.1583,-667.9842C376.59543,-667.4825,376.11002,-666.2718,376.11972,-665.20795C376.12894,-664.2149,375.5068,-662.4357,374.73758,-661.2227C373.96774,-660.0804,373.34433,-658.44305,373.35153,-657.66266C373.35867,-656.8824,372.9454,-655.53094,372.38516,-654.7454C371.82486,-653.9599,371.2034,-652.1098,370.9327,-650.6884C370.66202,-649.26715,370.03732,-647.77167,369.4744,-647.26984C368.9108,-646.8389,368.49698,-645.5584,368.5068,-644.4943C368.51657,-643.43036,367.8937,-641.72186,367.1226,-640.7216C366.35147,-639.7214,365.72745,-638.15497,365.73593,-637.2327C365.74448,-636.3107,365.33182,-634.8881,364.77158,-634.1025C364.2112,-633.3171,363.5898,-631.46686,363.31912,-630.04584C363.0491,-628.5535,362.42368,-627.1291,361.92978,-626.8405C361.5068,-626.55304,360.88132,-625.1285,360.6829,-623.566C360.48386,-622.0744,359.7908,-620.29474,359.1589,-619.5793C358.59726,-618.93585,358.1132,-617.5833,358.1216,-616.6612C358.13077,-615.668,357.71823,-614.24567,357.15787,-613.46014C356.59763,-612.6746,355.97617,-610.8244,355.70554,-609.40314C355.43478,-607.982,354.8101,-606.48627,354.24722,-605.9847C353.68356,-605.554,353.26907,-604.3438,353.27884,-603.27997C353.288,-602.2869,352.6672,-600.3659,351.89865,-599.0817C351.13016,-597.7978,350.50674,-596.16046,350.51382,-595.3803C350.52103,-594.60004,349.89963,-592.7498,349.13235,-591.32404C348.3658,-589.8271,347.74435,-587.97687,347.7521,-587.1259C347.75998,-586.2746,347.34415,-585.2067,346.7806,-584.7758C346.288,-584.34564,345.66464,-582.70844,345.39462,-581.2159C345.1954,-579.7244,344.50107,-578.08636,343.93814,-577.58466C343.37527,-577.0828,342.8918,-575.6597,342.90298,-574.4539C342.91403,-573.248,342.29318,-571.3266,341.52402,-570.11383C340.75412,-568.9716,340.13065,-567.3343,340.1379,-566.554C340.14505,-565.77386,339.73123,-564.4931,339.17087,-563.7076C338.68155,-562.92255,337.98856,-561.14276,337.7172,-559.7924C337.44583,-558.44196,336.82443,-556.592,336.26468,-555.7354C335.7051,-554.87897,335.2913,-553.5982,335.29776,-552.88885C335.3043,-552.1795,334.68216,-550.4002,333.91556,-548.9035C333.14835,-547.47784,332.52823,-545.48566,332.53677,-544.5634C332.54526,-543.64154,332.0591,-542.502,331.49625,-542.0002C331.00357,-541.57,330.31052,-539.7901,330.0425,-538.085C329.84592,-536.30975,329.22385,-534.53033,328.66025,-534.09955C328.0967,-533.6689,327.6815,-532.52997,327.69003,-531.6077C327.69846,-530.6857,327.07834,-528.69354,326.311,-527.26776C325.54446,-525.77106,324.9224,-523.99164,324.9283,-523.35345C324.93484,-522.6441,324.31265,-520.8649,323.54544,-519.439C322.7789,-517.9421,322.15744,-516.09186,322.1647,-515.3116C322.17252,-514.46063,321.68765,-513.17914,321.12735,-512.3936C320.56638,-511.67914,320.08163,-510.39764,320.08878,-509.6175C320.09598,-508.83722,319.47458,-506.987,318.70798,-505.4903C317.9407,-504.0644,317.31924,-502.21417,317.3264,-501.43402C317.33365,-500.65375,316.7122,-498.80365,315.94498,-497.37775C315.1783,-495.88092,314.55692,-494.03082,314.56406,-493.25067C314.57187,-492.39948,314.087,-491.11798,313.52676,-490.33258C312.96573,-489.61786,312.481,-488.3365,312.48813,-487.5561C312.496,-486.70502,311.8746,-484.85492,311.10867,-483.2873C310.34274,-481.71967,309.72128,-479.86908,309.7291,-479.01813C309.73624,-478.23785,309.11227,-476.67145,308.34305,-475.4583C307.57315,-474.31635,306.95303,-472.32416,306.96408,-471.11823C306.97513,-469.9124,306.56265,-468.4897,305.99905,-468.05902C305.4362,-467.5572,304.74252,-465.84845,304.5447,-464.21478C304.27597,-462.58087,303.65714,-460.44672,303.16965,-459.44916C302.0563,-457.09784,300.05392,-451.12054,299.44357,-448.0644C299.1014,-446.71344,298.34,-444.64935,297.71268,-443.43744C297.08463,-442.2967,296.60312,-440.66058,296.61093,-439.8094C296.61813,-439.0291,296.13333,-437.74762,295.5731,-436.96222C295.01205,-436.24774,294.53384,-434.25714,294.54892,-432.62555C294.5717,-430.14276,294.86063,-429.57806,296.21225,-429.1646C299.76938,-428.06244,315.2958,-413.6623,315.31674,-411.39252C315.3206,-410.96918,315.60446,-410.6187,316.0262,-410.6187L316.03476,-410.6187C316.39053,-410.6187,317.2499,-409.5639,317.8983,-408.36578C318.54855,-407.0949,319.33994,-405.89618,319.55466,-405.68536C320.55496,-404.914,323.93845,-399.55365,323.94553,-398.77325C323.95016,-398.27924,324.30484,-397.92877,324.65787,-397.92877L324.66592,-397.92877C325.09158,-397.92877,325.73483,-397.1557,326.09775,-396.1684C326.5306,-395.04547,327.30862,-394.41522,328.29147,-394.41522C328.2986,-394.41522,328.30582,-394.41522,328.31296,-394.41547C329.80264,-394.42902,329.80136,-394.57074,329.2526,-400.24103C329.00974,-403.5019,328.34274,-406.61737,327.84097,-407.1801C327.26828,-407.74237,326.6851,-409.43976,326.45798,-410.9981C326.23148,-412.48602,325.50583,-414.25287,324.86093,-414.95624C324.2875,-415.58954,323.77988,-416.7907,323.77274,-417.57098C323.76553,-418.35126,323.2593,-419.41058,322.68716,-419.90204C322.11575,-420.32233,321.46768,-421.38055,321.17606,-422.2293C320.88516,-423.0069,319.5881,-425.19403,318.29367,-427.09784C316.92892,-428.9295,315.84927,-430.62213,315.84732,-430.83514C315.84537,-431.0478,314.34012,-432.73663,312.54984,-434.5645C309.04196,-438.00824,306.88736,-440.8969,307.30832,-441.39752C307.44882,-441.5406,317.30612,-441.91522,329.1495,-442.30756C340.9227,-442.6286,351.48666,-443.2934,352.47647,-443.65704C353.53653,-444.0927,357.71585,-444.76935,361.82736,-445.09113C365.93826,-445.48358,370.54184,-446.3062,372.09714,-446.88812C373.6525,-447.4699,376.27255,-447.99042,377.97427,-448.0771C379.67673,-448.09247,381.942,-448.61005,383.0718,-449.18805C384.20074,-449.83698,386.6776,-450.4981,388.5193,-450.7989C390.43262,-451.02936,392.5548,-451.6872,393.33044,-452.19098C394.1068,-452.62384,396.0871,-453.2802,397.716,-453.57916C399.3448,-453.87787,401.04144,-454.53192,401.53278,-455.10406C401.95306,-455.67535,403.0841,-456.1115,404.07715,-456.12054C404.99927,-456.1291,406.97968,-456.78583,408.39172,-457.50787C409.80334,-458.30145,412.62897,-459.6042,414.53625,-460.4732C416.5147,-461.3426,418.56323,-462.28363,419.12756,-462.6435C419.69104,-463.0744,421.17407,-463.7973,422.37482,-464.37604C423.5755,-464.95465,424.84503,-465.74664,425.05402,-466.17413C425.3338,-466.60236,426.18176,-466.96478,426.96204,-466.972C427.6714,-466.97858,428.30652,-467.33905,428.30328,-467.69366C428.29944,-468.11945,429.14404,-468.8365,430.27496,-469.27252C431.33447,-469.77887,433.4502,-471.1463,434.99957,-472.36652C436.5492,-473.58673,439.15668,-475.45526,440.84863,-476.60553C442.46973,-477.7558,443.8064,-478.97394,443.80383,-479.25763C443.80054,-479.61237,444.15253,-479.89923,444.5782,-479.90326C445.50037,-479.91156,459.27557,-493.9427,459.2672,-494.86456C459.26392,-495.2193,459.89703,-495.79254,460.67535,-496.0125C461.45367,-496.23236,462.0877,-496.73492,462.0844,-497.08966C462.07593,-498.01202,465.78528,-503.50836,466.42365,-503.51422C466.70734,-503.51678,466.98706,-503.9449,466.98254,-504.4417C466.97736,-505.0091,467.6067,-506.008,468.3803,-506.72443C469.1541,-507.4411,469.78412,-508.36908,469.7796,-508.86554C469.7751,-509.36212,470.40356,-510.43182,471.17535,-511.36127C473.06628,-513.5728,473.10266,-517.7454,471.1297,-517.7454C471.1253,-517.7454,471.12097,-517.7453,471.11664,-517.7453C470.4073,-517.73895,469.4201,-517.0911,469.00165,-516.3072C468.58337,-515.52277,467.95068,-514.8786,467.59613,-514.8754C467.17035,-514.8714,466.2542,-514.2247,465.48114,-513.4373C464.70795,-512.6496,463.5788,-512.0008,463.0113,-511.9958C462.4439,-511.99042,461.95013,-511.7022,461.95398,-511.27655C461.95715,-510.92194,460.90033,-510.13165,459.5578,-509.55194C458.2862,-508.9726,456.94568,-508.17987,456.73676,-507.75238C456.45685,-507.32428,455.6089,-506.96173,454.82867,-506.95453C454.1192,-506.94794,452.28094,-506.2929,450.8694,-505.49945C449.3869,-504.7055,447.3357,-504.04816,446.20068,-504.03778C445.13672,-504.0279,443.22614,-503.51373,442.097,-502.86493C440.2096,-501.89948,428.8777,-501.0578,421.7265,-501.0578C418.71198,-501.0578,416.4403,-501.2072,415.93213,-501.56024C415.00342,-502.26105,415.00208,-502.403,415.91846,-503.04987C416.48254,-503.40997,417.68524,-503.77545,418.4655,-503.78265C419.3167,-503.7906,420.16394,-504.22406,420.37158,-504.79352C420.5797,-505.29193,421.9217,-505.94257,423.26685,-506.23883C424.68304,-506.53558,425.81323,-507.0428,425.81,-507.39728C425.80682,-507.75214,426.65283,-508.3272,427.7857,-508.55048C428.8471,-508.84406,430.4715,-509.6391,431.3864,-510.42792C432.30212,-511.1458,433.6446,-511.72565,434.28296,-511.73163C434.99225,-511.7381,435.69775,-512.1702,435.9054,-512.7397C436.11298,-513.309,437.24207,-513.9578,438.37427,-514.25214C439.5783,-514.476,440.7066,-515.19574,440.91425,-515.7652C441.122,-516.33466,441.89832,-516.7673,442.60754,-516.774C443.3169,-516.78046,444.6588,-517.4311,445.5738,-518.2199C446.48877,-519.0086,447.476,-519.65607,447.8307,-519.65936C448.18536,-519.6628,449.10144,-520.3099,449.94568,-521.09784C450.7896,-521.8859,451.91876,-522.5346,452.41522,-522.53937C452.9118,-522.54364,453.89972,-523.12054,454.67407,-523.7659C456.9239,-525.98566,459.2503,-527.5677,460.03064,-527.5749C460.45618,-527.5788,461.30212,-528.15424,461.9339,-528.86957C462.4956,-529.513,463.76202,-530.6597,464.67755,-531.3776C471.29974,-536.40424,474.39758,-538.9865,476.2943,-540.9904C477.48846,-542.2784,478.82635,-543.35455,479.32294,-543.3593C479.74854,-543.3631,480.1007,-543.6502,480.09674,-544.0756C480.089,-544.92694,483.46252,-548.3632,484.31378,-548.3709C484.73938,-548.37494,485.02045,-548.6612,485.0171,-549.01605C485.0138,-549.37067,486.76764,-551.51495,488.87537,-553.73346C490.984,-555.8809,492.73895,-557.88336,492.73706,-558.0964C492.73242,-558.59283,498.2022,-565.52423,499.39813,-566.5993C499.89075,-567.0297,500.4491,-568.0279,500.72455,-568.9526C501.0003,-569.80646,501.49036,-570.5203,501.7741,-570.5229C502.12878,-570.5262,502.75812,-571.5251,503.2442,-572.6646C503.72955,-573.8752,504.3595,-574.8033,504.71417,-574.80646C505.21082,-574.8111,506.11993,-576.2382,508.27966,-580.51434C508.76703,-581.51215,509.53748,-582.5833,510.0315,-582.87164C510.52533,-583.16,510.9433,-584.0151,510.93677,-584.7247C510.9303,-585.43365,511.55817,-586.5745,512.33185,-587.2912C513.10565,-588.0076,513.73364,-589.14825,513.7276,-589.7867C513.7212,-590.49603,514.1403,-591.20953,514.7058,-591.42755C515.27136,-591.64545,515.89923,-592.7863,516.17267,-593.92377C516.3744,-595.13165,517.0731,-596.27313,517.6386,-596.491C518.20416,-596.7093,518.6194,-597.84796,518.60486,-599.4085C518.5853,-601.5573,518.3793,-601.8753,516.9142,-601.8753C516.87976,-601.8753,516.8447,-601.8753,516.8089,-601.87494C515.81586,-601.8659,515.03754,-601.64594,515.04004,-601.3621C515.0434,-601.0076,513.0734,-599.21576,510.609,-597.2067C508.21503,-595.2695,505.68024,-593.1888,505.04767,-592.5446C501.4599,-589.24835,497.09082,-586.08673,496.0266,-586.0771C495.67212,-586.07367,495.1087,-585.6429,494.82935,-585.14374C494.55035,-584.6446,492.43652,-583.06464,490.10822,-581.69525C481.92413,-576.7961,480.79498,-576.14716,477.4781,-574.2723C475.5719,-573.26154,473.59357,-572.392,473.097,-572.3875C472.60052,-572.38275,471.82495,-571.87933,471.33356,-571.3072C470.8423,-570.73517,469.7827,-570.2288,468.93152,-570.2209C468.15137,-570.2139,466.52576,-569.5605,465.3271,-568.7691C464.19928,-567.97833,462.6446,-567.3256,461.93512,-567.3193C461.29675,-567.3132,459.5293,-566.6584,458.1178,-565.8654C456.6353,-565.07135,454.5841,-564.41376,453.44928,-564.4034C452.3852,-564.3936,450.75757,-563.9533,449.91138,-563.37775C449.06555,-562.8027,446.4475,-562.0693,444.10858,-561.8349C441.77032,-561.5296,439.5058,-560.9411,439.0125,-560.58185C438.51984,-560.1518,434.62366,-559.5484,430.3709,-559.1545C426.11816,-558.7608,421.22882,-558.14825,419.53046,-557.707C417.39758,-557.21234,413.88342,-556.96466,409.919,-556.96466C405.5937,-556.96466,400.73242,-557.25946,396.54443,-557.8503C392.70874,-558.3825,387.45508,-558.83075,384.90082,-558.87836C384.7931,-558.87726,384.68506,-558.8768,384.57703,-558.8768C382.12296,-558.8768,379.616,-559.12555,378.86618,-559.39044C377.6558,-559.8759,377.9368,-560.1622,380.83347,-561.4659C382.66995,-562.33405,386.13782,-563.2171,388.61786,-563.52374C391.02716,-563.8295,393.64575,-564.49225,394.42218,-564.9251C395.19788,-565.4285,397.39087,-566.08734,399.3744,-566.38934C401.28705,-566.6906,403.4801,-567.3494,404.2552,-567.92377C405.0302,-568.4985,406.44507,-568.9373,407.29626,-568.9451C408.21844,-568.95355,410.12775,-569.60944,411.53925,-570.40265C413.02167,-571.1967,414.86017,-571.852,415.71136,-571.8599C416.56256,-571.86774,417.62274,-572.30316,418.04303,-572.8746C418.53436,-573.4466,420.16003,-574.0999,421.6469,-574.39764C423.1339,-574.695,424.75958,-575.34845,425.25092,-575.9205C425.6712,-576.49164,426.66046,-576.92645,427.44073,-576.93365C428.221,-576.941,429.63385,-577.59235,430.6197,-578.38165C431.60565,-579.1712,433.0185,-579.82245,433.6568,-579.8284C434.36615,-579.8349,435.2845,-580.269,435.70483,-580.8404C436.1961,-581.41254,437.46643,-582.1336,438.59943,-582.3569C439.73248,-582.58,441.00275,-583.3011,441.49408,-583.873C441.91437,-584.4444,442.8327,-584.8786,443.54193,-584.8852C444.18036,-584.89105,445.59326,-585.5424,446.57904,-586.33185C447.56506,-587.12115,448.83588,-587.7714,449.40338,-587.7767C450.04175,-587.78253,450.74792,-588.1435,451.02765,-588.57184C451.23663,-588.99945,452.57715,-589.79205,453.84888,-590.37115C455.19147,-590.9511,456.24884,-591.6702,456.2456,-592.0251C456.2423,-592.3796,457.23077,-592.8852,458.36316,-593.1795C459.5664,-593.4742,460.48407,-593.9792,460.4809,-594.3339C460.47754,-594.68854,461.03973,-595.26154,461.74707,-595.4808C462.38293,-595.7703,463.72357,-596.5627,464.63904,-597.2807C465.5548,-597.9986,466.89734,-598.5784,467.60687,-598.58514C468.3871,-598.59235,468.95184,-598.88104,468.94855,-599.2358C468.94336,-599.8033,472.88953,-602.67706,474.93872,-603.5474C475.29218,-603.6923,477.19507,-605.05756,479.02484,-606.6352C480.9265,-608.14264,482.90143,-609.3665,483.46893,-609.3719C484.03644,-609.37726,484.46008,-609.5938,484.4568,-609.94855C484.45093,-610.58685,492.0564,-616.6867,493.75226,-617.4118C494.4591,-617.70197,495.02142,-618.2747,495.01752,-618.70026C495.01416,-619.0549,495.36566,-619.4129,495.79114,-619.4168C496.2876,-619.4213,497.27417,-620.1401,498.11768,-620.99884C498.96045,-621.929,501.0006,-623.79205,502.69067,-625.15533C507.3376,-628.95795,510.99615,-632.25494,515.4949,-636.76544C517.7439,-639.0562,519.926,-640.9206,520.2807,-640.924C520.7063,-640.9278,521.05774,-641.2858,521.05383,-641.7115C521.0498,-642.137,522.80426,-644.2105,524.9134,-646.2869C527.0225,-648.36383,528.77893,-650.2242,528.777,-650.43695C528.775,-650.64984,529.47516,-651.6495,530.38934,-652.50934C531.2323,-653.439,533.0569,-655.58417,534.38916,-657.299C535.7212,-659.01373,537.33575,-660.873,537.9676,-661.58844C538.60016,-662.2325,539.7213,-663.73285,540.4204,-664.8741C541.1185,-666.0866,542.1005,-667.3016,542.5945,-667.5898C543.0884,-667.87823,543.50885,-668.44965,543.5048,-668.8753C543.5015,-669.2299,545.32104,-671.9422,547.56494,-674.8005C551.6997,-680.30084,555.2725,-685.2287,556.4601,-687.2259C558.27637,-690.293,559.9559,-692.7913,560.5201,-693.1512C561.2249,-693.65436,562.622,-696.00824,564.15186,-699.3565C564.7083,-700.56744,565.47894,-701.6385,565.7626,-701.6414C566.04645,-701.64386,566.67676,-702.50104,567.163,-703.64056C567.579,-704.70844,568.62585,-706.56244,569.3957,-707.70465C570.1648,-708.9178,571.28156,-710.91437,571.8379,-712.1254C572.3937,-713.4074,573.16425,-714.4787,573.5189,-714.482C573.8735,-714.48517,574.36084,-715.4827,574.6335,-716.6912C574.9063,-717.8997,575.5341,-719.0406,576.09973,-719.2587C576.6652,-719.4766,577.0842,-720.19,577.0778,-720.89935C577.07135,-721.60846,577.5593,-722.53534,578.1223,-723.0369C578.6859,-723.4681,579.3139,-724.6086,579.5902,-725.39166C579.8663,-726.24554,580.63293,-727.7421,581.33356,-728.67084C582.10547,-729.6003,582.66064,-730.9533,582.6548,-731.5916C582.6481,-732.30096,583.13824,-733.0147,583.7032,-733.3038C584.2687,-733.52167,584.7574,-734.3774,584.75006,-735.15765C584.7429,-735.9379,585.3697,-737.2209,586.14276,-738.00824C586.9158,-738.7956,587.5433,-740.0074,587.53674,-740.71686C587.52966,-741.4969,588.1562,-742.7796,588.928,-743.70917C589.6998,-744.63837,590.32574,-745.9919,590.3192,-746.70123C590.3127,-747.4106,590.73114,-748.19476,591.2966,-748.4129C591.8621,-748.63104,592.4888,-749.9135,592.7603,-751.26385C592.96063,-752.6136,593.6577,-753.96783,594.223,-754.18585C594.7178,-754.40326,595.2062,-755.2592,595.1985,-756.1103C595.1913,-756.8907,595.8141,-758.59894,596.58405,-759.7409C597.3533,-760.95404,597.9785,-762.3785,597.97266,-763.0169C597.9668,-763.6552,598.384,-764.5815,598.94745,-765.01227C599.5103,-765.514,600.13574,-766.93854,600.3367,-768.2173C600.60815,-769.5676,601.2336,-770.99207,601.7966,-771.4939C602.3593,-771.9957,602.8454,-773.13525,602.83765,-773.9863C602.8297,-774.8375,603.454,-776.40393,604.22516,-777.4043C604.9962,-778.40466,605.6215,-779.8291,605.6145,-780.6094C605.6073,-781.38965,606.0224,-782.52856,606.5846,-783.1013C607.1469,-783.6737,607.8413,-785.312,608.11194,-786.7333C608.311,-788.225,609.008,-789.5792,609.5025,-789.7965C610.0681,-790.0145,610.4859,-790.8695,610.47723,-791.79175C610.4695,-792.64294,611.09375,-794.20935,611.86475,-795.2097C612.6359,-796.2097,613.2607,-797.7053,613.2534,-798.4856C613.2456,-799.3367,613.8671,-801.1869,614.6342,-802.6129C615.4009,-804.10974,616.02356,-805.81775,616.0177,-806.4563C616.0119,-807.0947,616.4998,-808.0215,617.06287,-808.5232C617.6258,-809.02515,618.1125,-810.0936,618.1046,-810.9448C618.0968,-811.79614,618.71826,-813.6461,619.4847,-815.14294C620.252,-816.5687,620.8748,-818.2772,620.8696,-818.8447C620.86444,-819.4121,621.4872,-821.12024,622.2544,-822.54626C623.02106,-824.04285,623.6424,-825.89294,623.63525,-826.6732C623.6282,-827.4536,624.0418,-828.7344,624.60223,-829.5198C625.09174,-830.3047,625.7845,-832.0845,626.05597,-833.4348C626.3272,-834.78516,626.94885,-836.6354,627.50854,-837.49194C628.06793,-838.34827,628.4807,-839.7709,628.4736,-840.55115C628.46625,-841.33154,629.0871,-843.25244,629.85297,-844.8202C630.6191,-846.38806,631.239,-848.3801,631.23126,-849.2313C631.2228,-850.15356,631.7057,-851.6476,632.3362,-852.50476C632.89594,-853.36096,633.58234,-855.85046,633.77563,-857.98047L634.16534,-861.8856L631.6826,-861.8629C630.264,-861.84985,628.7788,-861.3395,628.2877,-860.76733C627.7963,-860.19543,626.31305,-859.4724,624.89636,-859.2466C623.48035,-858.9497,621.85474,-858.2965,621.36334,-857.7245C620.8716,-857.22327,619.74054,-856.78723,618.88916,-856.7793C618.0387,-856.7007,616.05774,-856.11487,614.50433,-855.3203C612.95087,-854.52563,610.6154,-853.93677,609.3392,-853.854C608.0625,-853.8424,606.2226,-853.3286,605.3064,-852.6819C604.39014,-852.03516,601.5584,-851.3705,599.1486,-851.1355C596.6679,-850.8998,593.76575,-850.2346,592.6359,-849.65686C591.8289,-849.20325,591.22845,-848.9835,590.75507,-848.9835C590.4006,-848.9835,590.1174,-849.1068,589.8722,-849.34753C589.2995,-849.9098,589.43933,-850.1239,590.2906,-850.1317C590.9998,-850.1383,591.70465,-850.64136,591.9121,-851.21094C592.11975,-851.7803,593.4603,-852.573,594.87445,-853.0825C596.2887,-853.59216,597.9129,-854.38745,598.4043,-854.9595C598.8961,-855.46045,599.81445,-855.89465,600.4529,-855.9004C601.02026,-855.90576,602.29126,-856.5559,603.2774,-857.3452C604.26306,-858.13477,605.6759,-858.786,606.38525,-858.7926C607.1656,-858.7999,607.7297,-859.1598,607.7265,-859.5145C607.72253,-859.94006,608.5672,-860.6571,609.69763,-861.16406C610.7577,-861.5995,611.8855,-862.39026,612.1647,-862.8894C612.4439,-863.3884,613.0075,-863.8192,613.36206,-863.8225C613.7168,-863.8258,615.4802,-864.9061,617.3129,-866.19995C619.0751,-867.4221,621.04816,-868.85913,621.68335,-869.2197C622.24695,-869.6505,623.7957,-870.9415,625.06213,-872.08826C626.3278,-873.30566,628.86127,-875.5283,630.76215,-877.10657C635.9708,-881.5526,643.9094,-889.9966,649.23914,-896.71387C650.5712,-898.42883,652.25616,-900.3596,652.9602,-900.93384C653.5928,-901.578,654.1518,-902.5054,654.1478,-902.9309C654.144,-903.35645,654.6332,-904.14124,655.19617,-904.64294C656.81537,-906.00574,665.2093,-918.9232,667.08673,-923.05493C667.6431,-924.266,668.41364,-925.3373,668.76843,-925.34045C669.1229,-925.34375,669.6111,-926.2706,669.88416,-927.4081C670.0868,-928.5449,670.78564,-929.6865,671.35114,-929.9044C671.9876,-930.12305,672.33105,-931.33215,672.31415,-933.1765C672.29175,-935.61487,672.08295,-935.99866,670.6641,-935.99866C670.63837,-935.99866,670.61224,-935.99854,670.58563,-935.9983C669.66364,-935.98987,668.1791,-935.40845,667.2633,-934.6909C666.34784,-933.973,664.79584,-933.0364,663.8074,-932.5309C662.81824,-932.0962,661.47687,-931.3744,660.84235,-930.9429C660.13635,-930.58167,659.00793,-929.8617,658.37286,-929.50134C657.66736,-929.0692,656.32544,-928.41846,655.3356,-928.05457C652.7216,-926.8955,648.97754,-925.15857,646.0121,-923.6415C644.6006,-922.84827,642.8324,-922.2645,642.12305,-922.25793C641.4138,-922.25134,640.21173,-921.8148,639.4366,-921.24C638.66077,-920.73645,636.61115,-919.9374,634.8417,-919.49524C633.0716,-919.1245,630.73724,-918.39343,629.5346,-918.0276C627.0596,-917.1537,620.75903,-915.7479,617.1452,-915.2892L614.66583,-914.9116L616.85565,-915.9249C618.05634,-916.50354,619.3949,-917.5089,619.8861,-918.08105C620.44775,-918.7246,621.29456,-919.229,621.791,-919.2335C622.3586,-919.2388,623.98413,-919.8921,625.3957,-920.6853C626.878,-921.4794,628.43274,-922.13196,628.8582,-922.13586C629.35486,-922.1405,629.8469,-922.6417,630.1255,-923.2118C630.33295,-923.78125,631.10864,-924.2848,631.818,-924.2914C632.52734,-924.29785,633.7273,-924.9474,634.4296,-925.73413C635.13184,-926.5209,636.3317,-927.17065,637.0411,-927.1771C637.7503,-927.1837,638.52673,-927.61633,638.73425,-928.1858C638.94196,-928.75525,639.8583,-929.4021,640.8494,-929.624C641.769,-929.91614,643.181,-930.6387,643.88403,-931.3545C644.58734,-931.9994,645.85455,-933.07495,646.7715,-933.651C647.6173,-934.2263,649.23773,-935.44714,650.2934,-936.3793C651.34937,-937.24036,652.4779,-937.95984,652.76154,-937.96277C652.97455,-937.9646,654.24084,-939.1112,655.5052,-940.4707C656.84045,-941.83105,658.03613,-942.9769,658.31976,-942.9796C659.1709,-942.98755,675.3996,-960.23303,677.35895,-963.1598C677.77875,-963.802,678.6885,-965.1583,679.38745,-966.2998C680.1572,-967.442,681.06775,-968.7272,681.49005,-969.0857C682.47473,-970.0171,683.7324,-972.0858,684.8458,-974.43713C685.3334,-975.4348,686.10394,-976.5061,686.5978,-976.7943C687.0916,-977.08264,687.5107,-977.7958,687.50616,-978.29236C687.50165,-978.78894,688.1283,-980.07153,688.8994,-981.0719C689.67053,-982.07214,690.2972,-983.35486,690.2918,-983.92224C690.2866,-984.48975,690.70465,-985.34485,691.26825,-985.77563C691.83105,-986.2776,692.5286,-987.5608,692.731,-988.69775C692.9334,-989.8347,693.631,-991.1179,694.194,-991.61975C694.7575,-992.0504,695.1747,-992.9767,695.1681,-993.68604C695.16223,-994.32446,695.7876,-995.7489,696.55884,-996.74915C697.32983,-997.74927,697.9553,-999.1738,697.9481,-999.9541C697.9409,-1000.7344,698.42834,-1001.73206,698.99133,-1002.2339C699.5542,-1002.7357,700.39026,-1004.375,700.73145,-1005.8677C701.1426,-1007.4321,701.7699,-1008.64417,702.0537,-1008.6467C702.40845,-1008.65,702.89514,-1009.7185,703.09546,-1011.0681C703.36694,-1012.4186,703.9922,-1013.843,704.5552,-1014.34485C705.11804,-1014.8467,705.60486,-1015.9153,705.5968,-1016.7665C705.5897,-1017.54675,706.21265,-1019.2551,706.9823,-1020.3972C707.7516,-1021.6102,708.3751,-1023.2477,708.3672,-1024.0988C708.3594,-1024.9501,708.77454,-1026.0889,709.2666,-1026.59C709.82935,-1027.0918,710.4529,-1028.729,710.7234,-1030.1501C710.99365,-1031.6426,711.61694,-1033.28,712.1792,-1033.8527C712.74146,-1034.4253,713.2256,-1035.7776,713.2151,-1036.9126C713.2053,-1037.9764,713.8259,-1039.8977,714.59595,-1041.0399C715.36523,-1042.2528,715.98596,-1044.1741,715.9756,-1045.3091C715.9645,-1046.5149,716.3751,-1048.1501,716.9354,-1048.9357C717.4957,-1049.7212,718.1139,-1051.926,718.3799,-1053.8439C718.6455,-1055.8325,719.26294,-1058.1084,719.82263,-1058.9647C720.3822,-1059.8213,720.7877,-1062.0243,720.77136,-1063.7976C720.7462,-1066.5298,720.53455,-1066.9766,719.36755,-1066.9766C719.353,-1066.9766,719.33826,-1066.9766,719.32336,-1066.9764C718.5431,-1066.9692,717.6964,-1066.465,717.4889,-1065.8955C717.2103,-1065.3253,716.5055,-1064.8224,715.7964,-1064.8159C715.15784,-1064.81,713.88696,-1064.1597,712.9718,-1063.3711C712.0569,-1062.5823,710.8568,-1061.933,710.36035,-1061.9282C709.79297,-1061.9231,708.522,-1061.273,707.536,-1060.4836C706.55005,-1059.6941,704.9955,-1059.0413,704.1443,-1059.0333C703.2932,-1059.0255,702.1627,-1058.5188,701.67126,-1057.9468C701.18005,-1057.3748,700.2623,-1056.8695,699.624,-1056.8638C698.9855,-1056.8579,697.218,-1056.203,695.6647,-1055.4086C694.11127,-1054.6138,692.202,-1053.9579,691.4218,-1053.9507C690.6415,-1053.9435,688.73206,-1053.2876,687.1788,-1052.4928C685.62537,-1051.6984,683.5032,-1051.0403,682.4391,-1051.0305C681.30426,-1051.0201,679.6766,-1050.5793,678.83057,-1050.0042C677.9846,-1049.429,675.57874,-1048.7683,673.5243,-1048.4656C671.3989,-1048.1624,668.8511,-1047.5005,667.8632,-1046.9237C666.6326,-1046.2528,663.91406,-1045.8798,661.85065,-1045.8798C660.3633,-1045.8798,659.21643,-1046.0736,659.2126,-1046.4895C659.2093,-1046.8442,659.9134,-1047.4182,660.8336,-1047.6394C662.74304,-1048.2955,667.89764,-1050.8969,674.39044,-1054.5743C677.14307,-1056.0895,680.3897,-1057.8928,681.66144,-1058.4722C682.86206,-1059.0507,683.918,-1059.9116,683.91486,-1060.2662C683.91095,-1060.6918,684.40497,-1060.9802,684.9725,-1060.9855C685.5399,-1060.9906,686.598,-1061.6389,687.2295,-1062.4249C687.9314,-1063.2119,688.8477,-1063.8588,689.3441,-1063.8633C689.84076,-1063.8678,690.82794,-1064.5153,691.4592,-1065.3015C692.1613,-1066.0883,693.00665,-1066.7344,693.4322,-1066.7383C693.85803,-1066.7422,694.7039,-1067.3177,695.3358,-1068.033C695.89746,-1068.6765,697.797,-1070.3966,699.4872,-1071.7599C701.177,-1073.1234,703.2881,-1074.9872,704.2019,-1075.9178C705.04517,-1076.7769,705.9608,-1077.4946,706.10266,-1077.496C706.67017,-1077.5012,709.9708,-1081.1494,709.9651,-1081.788C709.96106,-1082.2135,710.2422,-1082.4998,710.5969,-1082.5029C710.8805,-1082.5057,712.70654,-1084.5089,714.5293,-1086.8666C716.4225,-1089.296,718.5967,-1092.0118,719.3689,-1092.8701C720.2118,-1093.8,721.33374,-1095.2292,721.8926,-1096.1566C722.4523,-1097.013,723.6438,-1098.5845,724.55615,-1099.6571C725.3977,-1100.729,726.09534,-1102.0122,726.09204,-1102.3668C726.088,-1102.7925,726.5078,-1103.4349,727.0017,-1103.7233C727.4956,-1104.0116,728.2661,-1105.0828,728.75354,-1106.0803C729.44934,-1107.5764,732.947,-1112.9292,735.0498,-1115.7152C736.2412,-1117.2867,738.4075,-1120.8538,739.2438,-1122.4932C740.84595,-1125.7002,742.03357,-1127.6974,742.66797,-1128.1288C743.02075,-1128.3448,743.6499,-1129.3441,744.13745,-1130.3417C745.6002,-1133.2635,747.69434,-1136.9717,749.1631,-1139.2552C749.93225,-1140.4684,751.0491,-1142.465,751.60474,-1143.7472C752.1612,-1144.9581,752.9316,-1146.0295,753.2863,-1146.0328C753.6409,-1146.036,754.1291,-1146.9624,754.4024,-1148.1C754.6047,-1149.2373,755.3038,-1150.3788,755.8692,-1150.5967C756.43475,-1150.8147,756.8531,-1151.5986,756.8461,-1152.3792C756.8388,-1153.1592,757.1857,-1154.0137,757.6087,-1154.3014C758.0323,-1154.5181,758.8715,-1155.803,759.3571,-1157.0131C759.91364,-1158.2244,761.0986,-1160.5056,762.00653,-1162.0747C762.9141,-1163.6436,764.72784,-1166.9944,765.981,-1169.5596C767.23456,-1172.125,768.491,-1174.3359,768.7729,-1174.5513C769.0546,-1174.7667,769.4709,-1175.7634,769.74506,-1176.8303C770.019,-1177.8969,770.6463,-1179.1088,771.20905,-1179.6102C771.77264,-1180.041,772.1893,-1181.0381,772.1829,-1181.7476C772.1755,-1182.5276,772.8035,-1183.6685,773.57794,-1184.314C774.35175,-1185.0308,774.981,-1186.0299,774.97516,-1186.6682C774.9699,-1187.2356,775.59467,-1188.7312,776.3643,-1189.873C777.1336,-1191.0862,777.759,-1192.5107,777.7531,-1193.1492C777.74725,-1193.7876,778.2353,-1194.7144,778.7984,-1195.2161C779.36115,-1195.7175,779.84845,-1196.7153,779.8421,-1197.4248C779.8349,-1198.2048,780.46295,-1199.3457,781.23737,-1199.9915C782.01117,-1200.708,782.6385,-1201.9198,782.63055,-1202.771C782.62335,-1203.551,783.24884,-1204.9758,784.02045,-1205.905C784.7923,-1206.8344,785.4172,-1208.3297,785.4086,-1209.252C785.4001,-1210.1742,785.88824,-1211.1008,786.4537,-1211.3188C787.0186,-1211.6079,787.50714,-1212.4636,787.4987,-1213.3857C787.4909,-1214.2373,788.11505,-1215.8037,788.88617,-1216.8037C789.6574,-1217.8041,790.28326,-1219.1577,790.2774,-1219.796C790.27155,-1220.4344,790.8942,-1222.1426,791.59064,-1223.5679C794.0993,-1228.486,795.8333,-1232.7583,795.82367,-1233.8223C795.8178,-1234.4607,796.3066,-1235.3162,796.8693,-1235.8181C797.4322,-1236.3198,797.9185,-1237.4594,797.9107,-1238.3105C797.9028,-1239.1616,798.5268,-1240.728,799.29803,-1241.7285C800.06903,-1242.7288,800.6938,-1244.2241,800.686,-1245.0757C800.67804,-1245.9268,801.16034,-1247.492,801.7188,-1248.49C802.2764,-1249.5594,803.03656,-1251.7655,803.4465,-1253.4717C803.8571,-1255.1072,804.483,-1256.4608,804.8377,-1256.4641C805.26324,-1256.468,805.53864,-1257.3927,805.529,-1258.4568C805.519,-1259.5205,806.1379,-1261.6543,806.9039,-1263.2224C807.66986,-1264.79,808.28925,-1266.853,808.2802,-1267.8462C808.27094,-1268.8391,808.752,-1270.5464,809.3792,-1271.7579C809.93634,-1272.8982,810.6235,-1275.3163,810.82,-1277.0916C811.0164,-1278.8668,811.5651,-1280.9292,812.05426,-1281.7142C812.4727,-1282.4983,813.08856,-1284.987,813.3514,-1287.2596C813.54315,-1289.5315,814.2265,-1292.3752,814.7841,-1293.4445C815.34125,-1294.5847,815.81354,-1297.2136,815.7946,-1299.2708C815.84674,-1301.3286,816.31586,-1304.3123,816.86896,-1305.878C817.4222,-1307.4438,818.1534,-1312.7712,818.4626,-1317.7397C818.8431,-1322.638,819.36566,-1327.538,819.7813,-1328.6062C820.6807,-1331.097,820.35785,-1366.2097,819.4194,-1367.9746C818.98663,-1368.7509,818.382,-1372.7886,817.98883,-1376.9705C817.5955,-1381.1526,816.7723,-1385.8271,816.1209,-1387.2397C815.4688,-1388.7234,814.94867,-1391.2727,814.93304,-1392.9749C814.91534,-1394.8904,814.47565,-1396.447,813.8321,-1397.0085C813.33136,-1397.4296,812.6053,-1399.2675,812.3045,-1401.1094C812.0046,-1402.88,811.3483,-1404.789,810.84674,-1405.352C810.2747,-1405.8433,809.8387,-1406.9742,809.83075,-1407.8257C809.82294,-1408.677,809.16876,-1410.3734,808.3781,-1411.5012C807.58685,-1412.7001,806.93463,-1414.1838,806.92816,-1414.8931C806.9223,-1415.5315,806.273,-1416.7314,805.4854,-1417.5046C804.6978,-1418.2773,804.0478,-1419.5486,804.04047,-1420.3286C804.0334,-1421.1072,803.67474,-1421.741,803.32086,-1421.741C803.3199,-1421.741,803.31903,-1421.741,803.3182,-1421.741C803.3171,-1421.741,803.316,-1421.741,803.315,-1421.741C802.88934,-1421.741,802.24615,-1422.5139,801.88324,-1423.5013C801.5201,-1424.489,800.9471,-1425.263,800.5922,-1425.263C800.5915,-1425.263,800.59076,-1425.263,800.59,-1425.263C800.5893,-1425.263,800.58856,-1425.263,800.5877,-1425.263C800.2326,-1425.263,799.5889,-1426.0361,799.15497,-1427.0234C798.21466,-1429.0011,798.21466,-1429.0011,794.1993,-1433.6461C784.9495,-1444.3442,771.65216,-1455.5015,765.38715,-1457.9268C764.8177,-1458.134,763.1075,-1458.9696,761.68207,-1459.666C760.26666,-1460.4276,758.2232,-1461.0435,757.2221,-1461.0435C757.21466,-1461.0435,757.20746,-1461.0435,757.20026,-1461.0433C757.18646,-1461.0432,757.17267,-1461.0432,757.15875,-1461.0432C754.80756,-1461.0432,750.4445,-1462.8312,750.4362,-1463.748C750.43195,-1464.2103,748.1541,-1464.4675,744.2332,-1464.4675 Z"/> </g> </g> </g> </svg>